<?xml version="1.0" encoding="iso-8859-1"?>
<!-- Generator: Adobe Illustrator 19.0.0, SVG Export Plug-In . SVG Version: 6.00 Build 0)  -->
<svg version="1.1" id="Layer_1" xmlns="http://www.w3.org/2000/svg" xmlns:xlink="http://www.w3.org/1999/xlink" x="0px" y="0px"
	 viewBox="0 0 512 512" style="enable-background:new 0 0 512 512;" xml:space="preserve">
<g transform="translate(1 1)">
	<g>
		<path d="M489.667-1h-85.333c-5.12,0-8.533,3.413-8.533,8.533v8.533h-34.133V7.533c0-5.12-3.413-8.533-8.533-8.533h-68.267
			c-5.12,0-8.533,3.413-8.533,8.533v8.533H242.2V7.533c0-5.12-3.413-8.533-8.533-8.533h-85.333c-5.12,0-8.533,3.413-8.533,8.533
			v34.133c0,5.12,3.413,8.533,8.533,8.533h85.333c5.12,0,8.533-3.413,8.533-8.533v-8.533h34.133v8.533
			c0,5.12,3.413,8.533,8.533,8.533h8.533v34.133h-25.6c-5.12,0-8.533,3.413-8.533,8.533V127c0,5.12,3.413,8.533,8.533,8.533h8.533
			v256h-42.667c-5.12,0-8.533,3.413-8.533,8.533v8.533H216.6c-9.387,0-17.067-7.68-17.067-17.067v-204.8
			c0-23.893-18.773-42.667-42.667-42.667c-23.893,0-42.667,18.773-42.667,42.667v110.933c0,14.601-4.164,20.868-8.533,23.563v-6.497
			c0-5.12-3.413-8.533-8.533-8.533H54.467c-5.12,0-8.533,3.413-8.533,8.533v8.533h-25.6c-5.12,0-8.533,3.413-8.533,8.533
			c0,5.12,3.413,8.533,8.533,8.533h25.6v8.533c0,5.12,3.413,8.533,8.533,8.533h42.667c5.12,0,8.533-3.413,8.533-8.533v-9.504
			c16.163-3.84,25.6-18.99,25.6-41.696V186.733c0-14.507,11.093-25.6,25.6-25.6c14.507,0,25.6,11.093,25.6,25.6v204.8
			c0,18.773,15.36,34.133,34.133,34.133h8.533v8.533c0,5.12,3.413,8.533,8.533,8.533h42.667v21.211l-55.467,31.695
			c-3.413,1.707-5.12,5.973-4.267,9.387c0.853,3.413,4.267,5.973,8.533,5.973h187.733c4.267,0,7.68-3.413,8.533-6.827
			s-0.853-7.68-4.267-9.387l-55.467-31.695V135.533h8.533c5.12,0,8.533-3.413,8.533-8.533V92.867c0-5.12-3.413-8.533-8.533-8.533
			h-25.6V50.2h8.533c5.12,0,8.533-3.413,8.533-8.533v-8.533H395.8v8.533c0,5.12,3.413,8.533,8.533,8.533h85.333
			c5.12,0,8.533-3.413,8.533-8.533V7.533C498.2,2.413,494.787-1,489.667-1z M225.133,33.133h-68.267V16.067h68.267V33.133z
			 M88.6,340.333H63v-17.067h25.6V340.333z M242.2,425.667V408.6h34.133v17.067H242.2z M257.56,493.933l29.867-17.067h64
			l29.867,17.067H257.56z M344.6,459.8h-51.2v-25.6v-34.133V135.533h51.2V459.8z M361.667,118.467h-8.533h-68.267h-8.533V101.4h25.6
			h34.133h25.6V118.467z M327.533,84.333h-17.067V50.2h17.067V84.333z M344.6,33.133h-8.533h-34.133H293.4V16.067h51.2V33.133z
			 M481.133,33.133h-68.267V16.067h68.267V33.133z"/>
	</g>
</g>
<g>
</g>
<g>
</g>
<g>
</g>
<g>
</g>
<g>
</g>
<g>
</g>
<g>
</g>
<g>
</g>
<g>
</g>
<g>
</g>
<g>
</g>
<g>
</g>
<g>
</g>
<g>
</g>
<g>
</g>
</svg>
