<?xml version="1.0" encoding="iso-8859-1"?>
<!-- Generator: Adobe Illustrator 19.0.0, SVG Export Plug-In . SVG Version: 6.00 Build 0)  -->
<svg version="1.1" id="Layer_1" xmlns="http://www.w3.org/2000/svg" xmlns:xlink="http://www.w3.org/1999/xlink" x="0px" y="0px"
	 viewBox="0 0 512 512" style="enable-background:new 0 0 512 512;" xml:space="preserve">
<g transform="translate(1 1)">
	<g>
		<g>
			<path d="M438.467-1c-28.16,0-51.2,23.04-51.2,51.2c0,28.16,23.04,51.2,51.2,51.2s51.2-23.04,51.2-51.2
				C489.667,22.04,466.627-1,438.467-1z M438.467,84.333c-18.773,0-34.133-15.36-34.133-34.133s15.36-34.133,34.133-34.133
				c18.773,0,34.133,15.36,34.133,34.133S457.24,84.333,438.467,84.333z"/>
			<path d="M410.307,114.2c-30.72-7.68-62.293,8.533-72.533,38.4L290.84,289.133c-1.707,5.12-7.68,8.533-12.8,7.68l-86.187-10.24
				c-12.8-1.707-24.747,5.973-28.16,17.92L106.52,469.187c-2.56,11.093,0,22.187,7.68,29.867S131.267,511,140.653,511
				c3.413,0,5.973,0,8.533-0.853c11.947-3.413,21.333-11.947,24.747-23.04L221.72,370.2c0.853-4.267,5.12-6.827,9.387-5.973
				l128.853,17.92c13.653,1.707,27.307-6.827,31.573-19.627L450.413,191c5.973-15.36,4.267-32.427-3.413-46.933
				C439.32,129.56,426.52,118.467,410.307,114.2z M435.053,184.173l-58.88,171.52c-1.707,5.12-6.827,8.533-12.8,7.68l-128.853-17.92
				c-12.8-1.707-24.747,5.973-28.16,17.067l-48.64,118.613c-1.707,5.973-6.827,10.24-12.8,11.947c-6.827,1.707-12.8,0-18.773-5.973
				c-3.413-2.56-4.267-8.533-3.413-12.8l57.173-165.547c0.853-3.413,4.267-5.973,8.533-5.973c0,0,0.853,0,1.707-0.853l86.187,10.24
				c13.653,1.707,26.453-6.827,30.72-19.627l46.933-136.533c7.68-21.333,30.72-33.28,52.053-27.307
				c11.947,3.413,20.48,11.093,26.453,21.333C437.613,161.133,439.32,173.08,435.053,184.173z"/>
			<path d="M173.933,195.267c0,3.413,1.707,6.827,5.12,7.68c0.853,0.853,2.56,0.853,3.413,0.853c2.56,0,4.267-0.853,5.973-2.56
				l76.8-76.8c3.413-3.413,3.413-8.533,0-11.947l-76.8-76.8c-2.56-2.56-5.973-3.413-9.387-1.707c-3.413,0.853-5.12,4.267-5.12,7.68
				V75.8H28.867c-5.12,0-8.533,3.413-8.533,8.533V152.6c0,5.12,3.413,8.533,8.533,8.533h145.067V195.267z M37.4,144.067v-51.2
				h145.067c5.12,0,8.533-3.413,8.533-8.533V62.147l56.32,56.32L191,174.787V152.6c0-5.12-3.413-8.533-8.533-8.533H37.4z"/>
		</g>
	</g>
</g>
<g>
</g>
<g>
</g>
<g>
</g>
<g>
</g>
<g>
</g>
<g>
</g>
<g>
</g>
<g>
</g>
<g>
</g>
<g>
</g>
<g>
</g>
<g>
</g>
<g>
</g>
<g>
</g>
<g>
</g>
</svg>
