<?xml version="1.0" encoding="iso-8859-1"?>
<!-- Generator: Adobe Illustrator 19.0.0, SVG Export Plug-In . SVG Version: 6.00 Build 0)  -->
<svg version="1.1" id="Layer_1" xmlns="http://www.w3.org/2000/svg" xmlns:xlink="http://www.w3.org/1999/xlink" x="0px" y="0px"
	 viewBox="0 0 512 512" style="enable-background:new 0 0 512 512;" xml:space="preserve">
<g transform="translate(1)">
	<g>
		<g>
			<path d="M255,119.467c-75.093,0-136.533,61.44-136.533,136.533S179.907,392.533,255,392.533S391.533,331.093,391.533,256
				S330.093,119.467,255,119.467z M255,375.467c-65.707,0-119.467-53.76-119.467-119.467S189.293,136.533,255,136.533
				c62.838,0,114.743,49.17,119.156,110.933h-50.89c-5.12,0-8.533,3.413-8.533,8.533s3.413,8.533,8.533,8.533h50.89
				C369.743,326.297,317.838,375.467,255,375.467z"/>
			<path d="M243.907,93.013c0.853,0.853,1.707,0.853,2.56,0.853c3.413,0,6.827-2.56,6.827-5.12l5.973-17.92l17.92,5.973
				c4.267,1.707,8.533-0.853,10.24-4.267L304.493,38.4c2.56-4.267,0.853-9.387-3.413-11.093c-4.267-2.56-9.387-0.853-11.093,3.413
				l-13.653,27.307l-18.773-5.973c-1.707-0.853-4.267-0.853-5.973-0.853c-1.707,0.853-3.413,2.56-4.267,5.12l-8.533,25.6
				C237.08,87.04,239.64,91.307,243.907,93.013z"/>
			<path d="M308.76,22.187c5.12,0,8.533-3.413,8.533-8.533S313.88,5.12,308.76,5.12s-8.533,3.413-8.533,8.533
				S303.64,22.187,308.76,22.187z"/>
			<path d="M204.9,64.246c1.395,2.509,4.034,4.02,7.434,4.02s6.038-1.511,7.434-4.02l15.606-15.606
				c3.413-3.413,3.413-8.533,0-11.947c-3.413-3.413-8.533-3.413-11.947,0l-2.56,2.56V8.533c0-5.12-3.413-8.533-8.533-8.533
				c-5.12,0-8.533,3.413-8.533,8.533v30.72l-2.56-2.56c-3.413-3.413-8.533-3.413-11.947,0c-3.413,3.413-3.413,8.533,0,11.947
				L204.9,64.246z"/>
			<path d="M495.64,231.253c-4.267-2.56-9.387-0.853-11.093,3.413l-13.653,27.307L452.12,256c-5.12-1.707-9.387,0.853-11.093,5.12
				l-8.533,25.6c-1.707,5.12,0.853,9.387,5.12,11.093c0.853,0.853,1.707,0.853,2.56,0.853c3.413,0,6.827-2.56,7.68-5.973
				l5.973-17.92l17.92,5.973c4.267,1.707,8.533-0.853,10.24-4.267l17.067-34.133C501.613,238.08,499.907,232.96,495.64,231.253z"/>
			<path d="M502.467,209.92c-5.12,0-8.533,3.413-8.533,8.533s3.413,8.533,8.533,8.533s8.533-3.413,8.533-8.533
				S507.587,209.92,502.467,209.92z"/>
			<path d="M94.573,231.253c-4.267-2.56-9.387-0.853-11.093,3.413l-13.653,27.307L51.053,256c-5.12-1.707-9.387,0.853-11.093,5.12
				l-8.533,25.6c-1.707,5.12,0.853,9.387,5.12,11.093c0.853,0.853,1.707,0.853,2.56,0.853c3.413,0,6.827-2.56,7.68-5.973
				l5.973-17.92l17.92,5.973c4.267,1.707,8.533-0.853,10.24-4.267l17.067-34.133C100.547,238.08,98.84,232.96,94.573,231.253z"/>
			<path d="M101.4,209.92c-5.12,0-8.533,3.413-8.533,8.533s3.413,8.533,8.533,8.533s8.533-3.413,8.533-8.533
				S106.52,209.92,101.4,209.92z"/>
			<path d="M39.107,244.907L54.713,229.3c2.509-1.395,4.02-4.034,4.02-7.434s-1.511-6.038-4.02-7.434l-15.606-15.607
				c-3.413-3.413-8.533-3.413-11.947,0c-3.413,3.413-3.413,8.533,0,11.947l2.56,2.56H7.533c-5.12,0-8.533,3.413-8.533,8.533
				s3.413,8.533,8.533,8.533H29.72l-2.56,2.56c-3.413,3.413-3.413,8.533,0,11.947c1.707,1.707,3.413,2.56,5.973,2.56
				S37.4,246.613,39.107,244.907z"/>
			<path d="M310.467,444.587c-4.267-2.56-9.387-0.853-11.093,3.413l-13.653,27.307l-18.773-5.973
				c-5.12-1.707-9.387,0.853-11.093,5.12l-8.533,25.6c-1.707,5.12,0.853,9.387,5.12,11.093C253.293,512,254.147,512,255,512
				c3.413,0,6.827-2.56,7.68-5.973l5.973-17.92l17.92,5.973c4.267,1.707,8.533-0.853,10.24-4.267l17.067-34.133
				C316.44,451.413,314.733,446.293,310.467,444.587z"/>
			<path d="M317.293,423.253c-5.12,0-8.533,3.413-8.533,8.533s3.413,8.533,8.533,8.533s8.533-3.413,8.533-8.533
				S322.413,423.253,317.293,423.253z"/>
			<path d="M268.046,442.634c2.509-1.395,4.02-4.034,4.02-7.434s-1.511-6.038-4.02-7.434L252.44,412.16
				c-3.413-3.413-8.533-3.413-11.947,0c-3.413,3.413-3.413,8.533,0,11.947l2.56,2.56h-22.187c-5.12,0-8.533,3.413-8.533,8.533
				s3.413,8.533,8.533,8.533h22.187l-2.56,2.56c-3.413,3.413-3.413,8.533,0,11.947c1.707,1.707,3.413,2.56,5.973,2.56
				s4.267-0.853,5.973-2.56L268.046,442.634z"/>
			<path d="M214.893,480.427l-2.56,2.56V460.8c0-5.12-3.413-8.533-8.533-8.533c-5.12,0-8.533,3.413-8.533,8.533v22.187l-2.56-2.56
				c-3.413-3.413-8.533-3.413-11.947,0s-3.413,8.533,0,11.947l15.607,15.607c1.395,2.509,4.034,4.02,7.433,4.02
				c3.399,0,6.038-1.511,7.434-4.02l15.606-15.606c3.413-3.413,3.413-8.533,0-11.947S218.307,477.013,214.893,480.427z"/>
			<path d="M470.04,220.16l4.267-23.893c0.853-5.973-0.853-12.8-5.12-17.92c-4.267-5.12-10.24-7.68-17.067-7.68h-35.84
				c-6.827,0-12.8,2.56-17.067,7.68s-5.973,11.093-5.12,17.92l3.413,23.893c1.707,11.093,11.093,18.773,22.187,18.773h28.16
				C458.947,238.933,468.333,231.253,470.04,220.16z M415.427,217.6l-4.267-23.893c-0.853-1.707,0-3.413,0.853-4.267
				s2.56-1.707,4.267-1.707h36.693c2.56,0,3.413,0.853,4.267,1.707c0,0.853,0.853,2.56,0.853,4.267l-4.267,23.893
				c-0.853,2.56-2.56,4.267-5.12,4.267h-28.16C417.987,221.867,415.427,220.16,415.427,217.6z"/>
		</g>
	</g>
</g>
<g>
</g>
<g>
</g>
<g>
</g>
<g>
</g>
<g>
</g>
<g>
</g>
<g>
</g>
<g>
</g>
<g>
</g>
<g>
</g>
<g>
</g>
<g>
</g>
<g>
</g>
<g>
</g>
<g>
</g>
</svg>
