<?xml version="1.0" encoding="iso-8859-1"?>
<!-- Generator: Adobe Illustrator 19.0.0, SVG Export Plug-In . SVG Version: 6.00 Build 0)  -->
<svg version="1.1" id="Layer_1" xmlns="http://www.w3.org/2000/svg" xmlns:xlink="http://www.w3.org/1999/xlink" x="0px" y="0px"
	 viewBox="0 0 512.035 512.035" style="enable-background:new 0 0 512.035 512.035;" xml:space="preserve">
<g transform="translate(1 1)">
	<g>
		<g>
			<path d="M459.835-0.965c-28.16,0-51.2,23.04-51.2,51.2c0,28.16,23.04,51.2,51.2,51.2c28.16,0,51.2-23.04,51.2-51.2
				C511.035,22.075,487.995-0.965,459.835-0.965z M459.835,84.368c-18.773,0-34.133-15.36-34.133-34.133s15.36-34.133,34.133-34.133
				c18.773,0,34.133,15.36,34.133,34.133S478.608,84.368,459.835,84.368z"/>
			<path d="M431.675,114.235c-30.72-7.68-62.293,8.533-72.533,38.4l-46.933,136.533c-1.707,5.12-7.68,8.533-12.8,7.68l-86.187-10.24
				c-12.8-1.707-24.747,5.973-28.16,17.92l-57.173,164.693c-2.56,11.093,0,22.187,7.68,29.867s17.067,11.947,26.453,11.947
				c3.413,0,5.973,0,8.533-0.853c11.947-3.413,21.333-11.947,24.747-23.04l47.787-116.907c0.853-4.267,5.12-6.827,9.387-5.973
				l128.853,17.92c13.653,1.707,27.307-6.827,31.573-19.627l58.88-171.52c5.973-15.36,4.267-32.427-3.413-46.933
				C460.688,129.595,447.888,118.501,431.675,114.235z M456.421,184.208l-58.88,171.52c-1.707,5.12-6.827,8.533-12.8,7.68
				l-128.853-17.92c-12.8-1.707-24.747,5.973-28.16,17.067l-48.64,118.613c-1.707,5.973-6.827,10.24-12.8,11.947
				c-6.827,1.707-12.8,0-18.773-5.973c-3.413-2.56-4.267-8.533-3.413-12.8l57.173-165.547c0.853-3.413,4.267-5.973,8.533-5.973
				c0,0,0.853,0,1.707-0.853l86.187,10.24c13.653,1.707,26.453-6.827,30.72-19.627l46.933-136.533
				c7.68-21.333,30.72-33.28,52.053-27.307c11.947,3.413,20.48,11.093,26.453,21.333
				C458.981,161.168,460.688,173.115,456.421,184.208z"/>
			<path d="M168.848,260.155c-0.853-3.413-4.267-5.12-7.68-5.12h-34.133v-102.4c0-5.12-3.413-8.533-8.533-8.533H50.235
				c-5.12,0-8.533,3.413-8.533,8.533v102.4H7.568c-3.413,0-5.973,1.707-7.68,5.12s-0.853,6.827,1.707,9.387l76.8,76.8
				c1.707,1.707,3.413,2.56,5.973,2.56s4.267-0.853,5.973-2.56l76.8-76.8C169.701,266.981,169.701,263.568,168.848,260.155z
				 M84.368,328.421l-56.32-56.32h22.187c5.12,0,8.533-3.413,8.533-8.533v-102.4h51.2v102.4c0,5.12,3.413,8.533,8.533,8.533h22.187
				L84.368,328.421z"/>
			<path d="M118.501,127.035h102.4v34.133c0,3.413,1.707,6.827,5.12,7.68c0.853,0.853,2.56,0.853,3.413,0.853
				c2.56,0,4.267-0.853,5.973-2.56l76.8-76.8c3.413-3.413,3.413-8.533,0-11.947l-76.8-76.8c-2.56-2.56-5.973-3.413-9.387-1.707
				c-3.413,0.853-5.12,4.267-5.12,7.68v34.133h-102.4c-5.12,0-8.533,3.413-8.533,8.533v68.267
				C109.968,123.621,113.381,127.035,118.501,127.035z M127.035,58.768h102.4c5.12,0,8.533-3.413,8.533-8.533V28.048l56.32,56.32
				l-56.32,56.32v-22.187c0-5.12-3.413-8.533-8.533-8.533h-102.4V58.768z"/>
		</g>
	</g>
</g>
<g>
</g>
<g>
</g>
<g>
</g>
<g>
</g>
<g>
</g>
<g>
</g>
<g>
</g>
<g>
</g>
<g>
</g>
<g>
</g>
<g>
</g>
<g>
</g>
<g>
</g>
<g>
</g>
<g>
</g>
</svg>
