<?xml version="1.0" encoding="iso-8859-1"?>
<!-- Generator: Adobe Illustrator 19.0.0, SVG Export Plug-In . SVG Version: 6.00 Build 0)  -->
<svg version="1.1" id="Layer_1" xmlns="http://www.w3.org/2000/svg" xmlns:xlink="http://www.w3.org/1999/xlink" x="0px" y="0px"
	 viewBox="0 0 512 512" style="enable-background:new 0 0 512 512;" xml:space="preserve">
<g>
	<g>
		<path d="M256,0C115.2,0,0,115.2,0,256s115.2,256,256,256s256-115.2,256-256S396.8,0,256,0z M256,494.933
			c-131.413,0-238.933-107.52-238.933-238.933S124.587,17.067,256,17.067S494.933,124.587,494.933,256S387.413,494.933,256,494.933z
			"/>
	</g>
</g>
<g>
	<g>
		<path d="M256,281.6c-18.773,0-34.133,15.36-34.133,34.133c0,18.773,15.36,34.133,34.133,34.133
			c18.773,0,34.133-15.36,34.133-34.133C290.133,296.96,274.773,281.6,256,281.6z M256,332.8c-9.387,0-17.067-7.68-17.067-17.067
			s7.68-17.067,17.067-17.067s17.067,7.68,17.067,17.067S265.387,332.8,256,332.8z"/>
	</g>
</g>
<g>
	<g>
		<path d="M315.733,221.867c-18.773,0-34.133,15.36-34.133,34.133c0,18.773,15.36,34.133,34.133,34.133
			c18.773,0,34.133-15.36,34.133-34.133C349.867,237.227,334.507,221.867,315.733,221.867z M315.733,273.067
			c-9.387,0-17.067-7.68-17.067-17.067s7.68-17.067,17.067-17.067S332.8,246.613,332.8,256S325.12,273.067,315.733,273.067z"/>
	</g>
</g>
<g>
	<g>
		<path d="M256,162.133c-18.773,0-34.133,15.36-34.133,34.133c0,18.773,15.36,34.133,34.133,34.133
			c18.773,0,34.133-15.36,34.133-34.133C290.133,177.493,274.773,162.133,256,162.133z M256,213.333
			c-9.387,0-17.067-7.68-17.067-17.067S246.613,179.2,256,179.2s17.067,7.68,17.067,17.067S265.387,213.333,256,213.333z"/>
	</g>
</g>
<g>
	<g>
		<path d="M196.267,221.867c-18.773,0-34.133,15.36-34.133,34.133c0,18.773,15.36,34.133,34.133,34.133
			c18.773,0,34.133-15.36,34.133-34.133C230.4,237.227,215.04,221.867,196.267,221.867z M196.267,273.067
			c-9.387,0-17.067-7.68-17.067-17.067s7.68-17.067,17.067-17.067s17.067,7.68,17.067,17.067S205.653,273.067,196.267,273.067z"/>
	</g>
</g>
<g>
	<g>
		<path d="M221.867,51.2c-11.093-7.68-23.893-9.387-36.693-5.973c-9.387,3.413-18.773,7.68-28.16,11.947
			C145.92,63.147,137.387,74.24,135.68,87.04c-2.56,13.653,1.707,26.453,11.093,35.84l22.187,22.187
			c8.533,7.68,18.773,11.947,29.013,11.947c5.12,0,10.24-1.707,16.213-3.413c14.507-5.973,24.747-21.333,24.747-37.547V84.48
			C238.933,70.827,232.96,58.88,221.867,51.2z M221.867,115.2c0,10.24-5.973,18.773-15.36,22.187
			c-8.533,3.413-18.773,1.707-25.6-5.12L158.72,110.08c-5.973-5.12-7.68-12.8-6.827-20.48c1.707-7.68,5.973-13.653,12.8-17.067
			c7.68-4.267,17.067-7.68,25.6-11.093c2.56-0.853,5.12-0.853,7.68-0.853c5.12,0,10.24,1.707,13.653,4.267
			c6.827,5.12,10.24,11.947,10.24,19.627V115.2z"/>
	</g>
</g>
<g>
	<g>
		<path d="M145.92,168.96l-22.187-22.187c-9.387-8.533-23.04-12.8-35.84-11.093C74.24,137.387,64,145.067,58.027,157.013
			c-5.12,9.387-8.533,18.773-11.947,28.16c-4.267,12.8-2.56,25.6,5.12,36.693s19.627,17.067,33.28,17.067h31.573
			c16.213,0,30.72-11.093,38.4-25.6C161.28,197.973,157.867,180.907,145.92,168.96z M137.387,207.36
			c-3.413,8.533-11.947,14.507-21.333,14.507H84.48c-7.68,0-14.507-3.413-19.627-10.24c-5.12-5.973-5.973-13.653-3.413-21.333
			c3.413-8.533,6.827-17.067,11.093-25.6c3.413-6.827,9.387-11.947,17.067-12.8c1.707,0,2.56,0,4.267,0
			c5.973,0,11.947,2.56,17.067,6.827l21.333,23.04C139.093,188.587,140.8,197.973,137.387,207.36z"/>
	</g>
</g>
<g>
	<g>
		<path d="M153.6,298.667c-5.973-14.507-21.333-25.6-37.547-25.6H84.48c-13.653,0-25.6,5.973-33.28,17.067
			s-9.387,23.893-5.973,36.693c3.413,9.387,7.68,18.773,11.947,28.16c5.973,11.093,17.067,19.627,29.867,21.333
			c2.56,0.853,4.267,0.853,6.827,0.853c10.24,0,21.333-4.267,29.013-11.947l22.187-22.187
			C156.16,331.093,159.573,314.027,153.6,298.667z M132.267,331.093L110.08,353.28c-5.12,5.973-12.8,7.68-20.48,6.827
			c-7.68-1.707-13.653-5.973-17.067-12.8c-4.267-7.68-7.68-17.067-11.093-25.6c-2.56-6.827-0.853-15.36,3.413-21.333
			c5.12-6.827,11.947-10.24,19.627-10.24h31.573c9.387,0,17.92,5.973,21.333,14.507S139.093,324.267,132.267,331.093z"/>
	</g>
</g>
<g>
	<g>
		<path d="M376.32,87.893C374.613,74.24,366.933,64,354.987,58.027c-9.387-5.12-18.773-8.533-28.16-11.947
			c-12.8-4.267-25.6-2.56-36.693,5.12s-17.067,19.627-17.067,33.28v31.573c0,16.213,10.24,30.72,25.6,37.547
			c5.12,2.56,10.24,3.413,15.36,3.413c11.093,0,21.333-4.267,29.013-11.947l22.187-21.333
			C373.76,114.347,378.027,100.693,376.32,87.893z M353.28,110.933l-22.187,22.187c-6.827,6.827-17.067,9.387-26.453,5.12
			c-8.533-4.267-14.507-12.8-14.507-22.187V84.48c0-7.68,3.413-14.507,10.24-19.627c4.267-2.56,8.533-4.267,13.653-4.267
			c2.56,0,5.12,0.853,7.68,1.707c8.533,3.413,17.067,6.827,25.6,11.093c6.827,3.413,11.947,9.387,12.8,17.067
			S358.4,105.813,353.28,110.933z"/>
	</g>
</g>
<g>
	<g>
		<path d="M466.773,185.173c-3.413-9.387-7.68-18.773-11.947-28.16c-5.973-11.093-17.067-19.627-29.867-21.333
			c-13.653-2.56-26.453,1.707-35.84,11.093l-22.187,22.187c-11.093,11.947-14.507,29.013-8.533,44.373
			c5.973,14.507,21.333,25.6,37.547,25.6h31.573c13.653,0,25.6-5.973,34.133-17.067C469.333,211.627,471.04,197.973,466.773,185.173
			z M447.147,211.627c-5.12,6.827-11.947,10.24-19.627,10.24h-31.573c-10.24,0-18.773-5.973-22.187-15.36
			c-3.413-8.533-1.707-18.773,5.973-24.747l22.187-22.187c5.12-5.973,12.8-7.68,20.48-6.827c7.68,0.853,13.653,5.12,17.067,11.947
			c4.267,7.68,8.533,17.067,11.093,25.6C453.12,197.12,451.413,205.653,447.147,211.627z"/>
	</g>
</g>
<g>
	<g>
		<path d="M213.333,357.547c-15.36-6.827-32.427-3.413-44.373,8.533l-22.187,22.187c-8.533,9.387-12.8,23.04-11.093,35.84
			c1.707,13.653,9.387,23.893,21.333,29.867c9.387,5.12,18.773,8.533,28.16,11.947c4.267,1.707,8.533,2.56,12.8,2.56
			c8.533,0,17.067-2.56,23.893-8.533c11.093-7.68,17.067-19.627,17.067-33.28v-31.573
			C238.933,378.88,228.693,363.52,213.333,357.547z M221.867,426.667c0,8.533-4.267,15.36-10.24,19.627
			c-5.973,5.12-13.653,5.973-21.333,3.413c-8.533-3.413-17.067-6.827-25.6-11.093c-6.827-3.413-11.947-9.387-12.8-17.067
			c-0.853-7.68,1.707-15.36,6.827-20.48l23.04-22.187c4.267-4.267,10.24-6.827,16.213-6.827c2.56,0,5.973,0.853,9.387,1.707
			c8.533,3.413,14.507,11.947,14.507,21.333V426.667z"/>
	</g>
</g>
<g>
	<g>
		<path d="M460.8,290.133c-7.68-11.093-19.627-17.067-33.28-17.067h-31.573c-16.213,0-31.573,10.24-37.547,25.6
			c-6.827,15.36-3.413,32.427,8.533,44.373l22.187,22.187c7.68,7.68,17.92,11.947,29.013,11.947c2.56,0,4.267,0,5.973-0.853
			c13.653-1.707,23.893-9.387,29.867-21.333c5.12-9.387,8.533-18.773,11.947-28.16C470.187,314.027,468.48,301.227,460.8,290.133z
			 M450.56,321.707c-3.413,8.533-6.827,17.067-11.093,25.6c-3.413,6.827-9.387,11.947-17.067,12.8s-15.36-1.707-20.48-6.827
			l-22.187-22.187c-6.827-6.827-9.387-17.067-5.12-26.453c3.413-8.533,11.947-14.507,21.333-14.507h31.573
			c7.68,0,14.507,3.413,19.627,10.24C452.267,306.347,453.12,314.027,450.56,321.707z"/>
	</g>
</g>
<g>
	<g>
		<path d="M365.227,389.12l-22.187-22.187c-11.947-11.093-29.013-15.36-44.373-8.533c-14.507,5.973-25.6,21.333-25.6,37.547v31.573
			c0,13.653,5.973,25.6,17.067,33.28c7.68,5.12,15.36,7.68,23.893,7.68c4.267,0,8.533-0.853,12.8-1.707
			c9.387-3.413,18.773-7.68,28.16-11.947c11.093-5.973,19.627-17.067,21.333-29.867C378.88,411.307,374.613,398.507,365.227,389.12z
			 M360.107,423.253c-1.707,7.68-5.973,13.653-12.8,17.067c-7.68,4.267-17.067,7.68-25.6,11.093
			c-6.827,2.56-15.36,0.853-21.333-3.413c-6.827-5.12-10.24-11.947-10.24-19.627V396.8c0-10.24,5.12-18.773,14.507-22.187
			c9.387-4.267,19.627-2.56,26.453,5.973l22.187,22.187C359.253,407.893,360.96,415.573,360.107,423.253z"/>
	</g>
</g>
<g>
</g>
<g>
</g>
<g>
</g>
<g>
</g>
<g>
</g>
<g>
</g>
<g>
</g>
<g>
</g>
<g>
</g>
<g>
</g>
<g>
</g>
<g>
</g>
<g>
</g>
<g>
</g>
<g>
</g>
</svg>
