<?xml version="1.0" encoding="iso-8859-1"?>
<!-- Generator: Adobe Illustrator 19.0.0, SVG Export Plug-In . SVG Version: 6.00 Build 0)  -->
<svg version="1.1" id="Layer_1" xmlns="http://www.w3.org/2000/svg" xmlns:xlink="http://www.w3.org/1999/xlink" x="0px" y="0px"
	 viewBox="0 0 512 512" style="enable-background:new 0 0 512 512;" xml:space="preserve">
<g transform="translate(1 1)">
	<g>
		<g>
			<path d="M255-1C114.2-1-1,114.2-1,255s115.2,256,256,256s256-115.2,256-256S395.8-1,255-1z M255,493.933
				c-131.413,0-238.933-107.52-238.933-238.933S123.587,16.067,255,16.067S493.933,123.587,493.933,255S386.413,493.933,255,493.933
				z"/>
			<path d="M459.8,255c0-16.629-2.023-32.805-5.81-48.31c-0.035-0.393-0.085-0.788-0.164-1.183
				c-4.267-17.067-11.093-34.133-19.627-49.493c-0.221-0.442-0.486-0.854-0.788-1.234c-17.015-30.085-41.414-55.498-70.696-73.739
				c-0.551-0.673-1.187-1.289-1.904-1.827C346.307,69.827,329.24,63,312.173,57.88c-0.832-0.166-1.663-0.232-2.476-0.204
				C292.268,52.813,273.925,50.2,255,50.2c-16.629,0-32.805,2.023-48.31,5.81c-0.393,0.035-0.788,0.085-1.183,0.164
				C188.44,60.44,171.373,67.267,156.013,75.8c-0.442,0.221-0.853,0.486-1.234,0.787c-30.813,17.426-56.733,42.594-75.058,72.824
				c-0.176,0.203-0.346,0.412-0.508,0.629C69.827,164.547,63,181.613,57.88,198.68c-0.108,0.538-0.174,1.075-0.2,1.608
				C52.814,217.722,50.2,236.069,50.2,255c0,16.629,2.023,32.805,5.81,48.31c0.035,0.393,0.085,0.788,0.164,1.183
				c4.267,17.067,11.093,34.133,19.627,49.493c0.221,0.442,0.486,0.853,0.787,1.234c16.71,29.546,40.539,54.589,69.123,72.755
				c0.678,1.066,1.568,2.02,2.623,2.811c14.507,9.387,31.573,16.213,48.64,21.333c1.068,0.214,2.137,0.267,3.165,0.159
				c17.478,4.893,35.877,7.521,54.862,7.521c73.194,0,137.728-38.922,173.96-97.083c0.673-0.551,1.289-1.187,1.827-1.904
				c9.387-14.507,16.213-31.573,21.333-48.64c0.166-0.832,0.232-1.663,0.204-2.476C457.187,292.268,459.8,273.925,459.8,255z
				 M419.024,346.015l-46.264-20.188c-13.653-5.973-29.013-3.413-38.4,6.827c-2.56,1.707-4.267,3.413-5.973,5.12
				c-10.24,8.533-13.653,23.893-8.533,37.547l18.773,46.933c-10.24,5.12-20.48,9.387-31.573,12.8L288.28,388.12
				c-5.12-13.653-17.92-22.187-33.28-22.187c-1.707,0-4.267,0-5.973,0.853c-14.507-0.853-27.307,7.68-33.28,20.48l-20.318,45.715
				c-10.963-3.697-21.477-8.39-31.443-13.958l20.188-46.264c5.973-13.653,3.413-29.013-6.827-38.4
				c-1.707-1.707-3.413-3.413-5.12-5.12c-8.533-10.24-23.893-13.653-37.547-8.533L87.747,339.48
				c-5.12-10.24-9.387-20.48-12.8-31.573l46.933-18.773c13.653-5.12,22.187-17.92,22.187-33.28c0-1.707,0-4.267,0-5.973
				c0.853-14.507-7.68-27.307-20.48-33.28l-46.08-20.48c3.413-11.093,8.533-21.333,13.653-31.573l46.933,20.48
				c13.653,5.973,29.013,3.413,38.4-6.827c2.56-1.707,4.267-3.413,5.973-5.12c10.24-8.533,13.653-23.893,8.533-37.547
				l-18.773-47.787c10.24-5.12,20.48-9.387,31.573-12.8l18.773,46.933c5.12,13.653,17.92,22.187,33.28,22.187
				c1.707-0.853,4.267,0,5.973,0c13.653,0.853,27.307-7.68,33.28-20.48l20.48-46.08c2.213,0.681,4.384,1.445,6.536,2.248
				c8.612,3.324,16.922,7.266,24.877,11.773l-20.319,46.565c-5.973,13.653-3.413,29.013,6.827,38.4
				c1.707,1.707,3.413,3.413,5.12,5.12c8.533,10.24,23.893,13.653,37.547,8.533l46.793-18.717
				c5.061,10.097,9.243,20.703,12.432,31.721l-46.425,18.57c-13.653,5.12-22.187,17.92-22.187,33.28c0,1.707,0,4.267,0,5.973
				c-0.853,14.507,7.68,27.307,20.48,33.28l45.715,20.318C429.285,325.534,424.592,336.048,419.024,346.015z M67.267,255
				c0-14.447,1.656-28.526,4.784-42.057l44.709,19.871c5.973,2.56,10.24,9.387,10.24,16.213c0,1.707,0,4.267,0,6.827
				c0,7.68-4.267,14.507-11.093,17.067l-45.219,17.664C68.452,279.053,67.267,267.159,67.267,255z M393.24,278.04
				c-5.973-3.413-10.24-10.24-10.24-17.067c0-2.56,0-4.267,0-6.827c0-7.68,4.267-14.507,11.093-17.067l45.219-17.664
				c2.236,11.531,3.421,23.425,3.421,35.584c0,14.722-1.724,29.061-4.968,42.829L393.24,278.04z M414.488,156.3l-45.142,17.633
				c-6.827,2.56-14.507,0.853-18.773-4.267c-1.707-1.707-4.267-4.267-5.973-5.973c-5.12-5.12-5.973-12.8-3.413-19.627l19.002-44.338
				C381.987,114.573,400.529,133.879,414.488,156.3z M297.829,72.235L278.04,116.76c-3.413,5.973-10.24,11.093-17.067,10.24
				c-1.707,0-4.267,0-6.827,0c-7.68,0-14.507-4.267-17.067-11.093l-17.664-45.219c11.531-2.236,23.425-3.421,35.584-3.421
				C269.722,67.267,284.061,68.99,297.829,72.235z M156.209,95.568l17.724,46.792c2.56,6.827,0.853,14.507-4.267,18.773
				c-1.707,1.707-4.267,4.267-5.973,5.973c-5.12,5.12-12.8,5.973-19.627,3.413l-44.861-19.938
				C114.099,128.479,133.563,109.686,156.209,95.568z M95.512,353.7l45.142-17.633c6.827-2.56,14.507-0.853,18.773,4.267
				c1.707,1.707,4.267,4.267,5.973,5.973c5.12,5.12,5.973,12.8,3.413,19.627l-19.54,43.964
				C127.709,395.103,109.356,375.936,95.512,353.7z M211.402,437.576l19.705-44.336c3.413-5.973,10.24-10.24,17.067-10.24
				c1.707,0,4.267,0,6.827,0c8.533,0,14.507,4.267,17.92,11.093l17.664,45.219c-11.531,2.236-23.425,3.421-35.584,3.421
				C240.003,442.733,225.406,440.94,211.402,437.576z M353.014,414.918l-17.801-45.571c-2.56-6.827-0.853-14.507,4.267-18.773
				c2.56-1.707,5.12-4.267,6.827-5.973c5.12-5.12,12.8-5.973,19.627-3.413l44.338,19.002
				C395.276,382.21,375.729,400.91,353.014,414.918z"/>
			<path d="M255,280.6c-18.773,0-34.133,15.36-34.133,34.133c0,18.773,15.36,34.133,34.133,34.133
				c18.773,0,34.133-15.36,34.133-34.133C289.133,295.96,273.773,280.6,255,280.6z M255,331.8c-9.387,0-17.067-7.68-17.067-17.067
				s7.68-17.067,17.067-17.067s17.067,7.68,17.067,17.067S264.387,331.8,255,331.8z"/>
			<path d="M314.733,220.867c-18.773,0-34.133,15.36-34.133,34.133c0,18.773,15.36,34.133,34.133,34.133
				c18.773,0,34.133-15.36,34.133-34.133C348.867,236.227,333.507,220.867,314.733,220.867z M314.733,272.067
				c-9.387,0-17.067-7.68-17.067-17.067s7.68-17.067,17.067-17.067S331.8,245.613,331.8,255S324.12,272.067,314.733,272.067z"/>
			<path d="M255,229.4c18.773,0,34.133-15.36,34.133-34.133c0-18.773-15.36-34.133-34.133-34.133
				c-18.773,0-34.133,15.36-34.133,34.133C220.867,214.04,236.227,229.4,255,229.4z M255,178.2c9.387,0,17.067,7.68,17.067,17.067
				s-7.68,17.067-17.067,17.067s-17.067-7.68-17.067-17.067S245.613,178.2,255,178.2z"/>
			<path d="M195.267,220.867c-18.773,0-34.133,15.36-34.133,34.133c0,18.773,15.36,34.133,34.133,34.133
				c18.773,0,34.133-15.36,34.133-34.133C229.4,236.227,214.04,220.867,195.267,220.867z M195.267,272.067
				c-9.387,0-17.067-7.68-17.067-17.067s7.68-17.067,17.067-17.067s17.067,7.68,17.067,17.067S204.653,272.067,195.267,272.067z"/>
		</g>
	</g>
</g>
<g>
</g>
<g>
</g>
<g>
</g>
<g>
</g>
<g>
</g>
<g>
</g>
<g>
</g>
<g>
</g>
<g>
</g>
<g>
</g>
<g>
</g>
<g>
</g>
<g>
</g>
<g>
</g>
<g>
</g>
</svg>
