<?xml version="1.0" encoding="iso-8859-1"?>
<!-- Generator: Adobe Illustrator 19.0.0, SVG Export Plug-In . SVG Version: 6.00 Build 0)  -->
<svg version="1.1" id="Layer_1" xmlns="http://www.w3.org/2000/svg" xmlns:xlink="http://www.w3.org/1999/xlink" x="0px" y="0px"
	 viewBox="0 0 512 512" style="enable-background:new 0 0 512 512;" xml:space="preserve">
<g transform="translate(1 1)">
	<g>
		<g>
			<path d="M255-1C114.2-1-1,114.2-1,255s115.2,256,256,256s256-115.2,256-256S395.8-1,255-1z M255,493.933
				c-131.413,0-238.933-107.52-238.933-238.933S123.587,16.067,255,16.067S493.933,123.587,493.933,255S386.413,493.933,255,493.933
				z"/>
			<path d="M289.133,314.733c0-18.773-15.36-34.133-34.133-34.133c-18.773,0-34.133,15.36-34.133,34.133
				c0,18.773,15.36,34.133,34.133,34.133C273.773,348.867,289.133,333.507,289.133,314.733z M255,331.8
				c-9.387,0-17.067-7.68-17.067-17.067s7.68-17.067,17.067-17.067s17.067,7.68,17.067,17.067S264.387,331.8,255,331.8z"/>
			<path d="M280.6,255c0,18.773,15.36,34.133,34.133,34.133c18.773,0,34.133-15.36,34.133-34.133
				c0-18.773-15.36-34.133-34.133-34.133C295.96,220.867,280.6,236.227,280.6,255z M331.8,255c0,9.387-7.68,17.067-17.067,17.067
				s-17.067-7.68-17.067-17.067s7.68-17.067,17.067-17.067S331.8,245.613,331.8,255z"/>
			<path d="M220.867,195.267c0,18.773,15.36,34.133,34.133,34.133c18.773,0,34.133-15.36,34.133-34.133
				c0-18.773-15.36-34.133-34.133-34.133C236.227,161.133,220.867,176.493,220.867,195.267z M255,178.2
				c9.387,0,17.067,7.68,17.067,17.067s-7.68,17.067-17.067,17.067s-17.067-7.68-17.067-17.067S245.613,178.2,255,178.2z"/>
			<path d="M195.267,220.867c-18.773,0-34.133,15.36-34.133,34.133c0,18.773,15.36,34.133,34.133,34.133
				c18.773,0,34.133-15.36,34.133-34.133C229.4,236.227,214.04,220.867,195.267,220.867z M195.267,272.067
				c-9.387,0-17.067-7.68-17.067-17.067s7.68-17.067,17.067-17.067s17.067,7.68,17.067,17.067S204.653,272.067,195.267,272.067z"/>
			<path d="M41.667,222.573c23.893,10.24,49.493,15.36,75.093,15.36h21.333c4.267,0,7.68-2.56,7.68-5.973
				c9.387-41.813,42.667-75.093,84.48-84.48c4.267-0.853,6.827-4.267,6.827-8.533v-21.333c0-26.453-5.12-51.2-15.36-75.093
				c-1.707-3.413-5.12-5.973-9.387-5.12C124.44,54.467,53.613,125.293,36.547,213.187C35.693,217.453,38.253,220.867,41.667,222.573
				z M209.773,55.32c6.827,19.627,11.093,40.107,11.093,61.44v14.507c-43.52,11.947-77.653,46.08-89.6,89.6H116.76
				c-21.333,0-41.813-3.413-61.44-11.093C72.387,133.827,133.827,72.387,209.773,55.32z"/>
			<path d="M278.893,146.627c41.813,9.387,75.093,42.667,84.48,84.48c0.853,4.267,4.267,6.827,8.533,6.827h21.333
				c25.6,0,51.2-5.12,74.24-16.213c3.413-1.707,5.973-5.12,5.12-9.387c-17.067-87.893-87.893-158.72-175.787-175.787
				c-4.267-0.853-7.68,1.707-9.387,5.12c-10.24,23.893-15.36,49.493-15.36,75.093v21.333
				C272.067,142.36,274.627,145.773,278.893,146.627z M289.987,117.613c0-21.333,3.413-41.813,11.093-61.44
				c75.947,17.067,136.533,77.653,153.6,153.6c-19.627,6.827-40.107,11.093-61.44,11.093h-14.507
				c-11.947-43.52-46.08-77.653-88.747-88.747V117.613z"/>
			<path d="M231.96,363.373c-41.813-9.387-75.093-42.667-84.48-84.48c-0.853-4.267-4.267-6.827-8.533-6.827h-21.333
				c-26.453,0-51.2,5.12-75.093,15.36c-3.413,1.707-5.973,5.12-5.12,9.387c17.067,87.893,87.893,158.72,175.787,175.787
				c0.853,0,0.853,0,1.707,0c3.413,0,5.973-1.707,8.533-4.267c10.24-23.893,15.36-49.493,15.36-75.093v-21.333
				C238.787,367.64,236.227,364.227,231.96,363.373z M220.013,392.387c0,21.333-3.413,41.813-11.093,61.44
				c-75.947-17.067-136.533-77.653-153.6-153.6c19.627-6.827,40.107-11.093,60.587-11.947h14.507
				c11.947,43.52,46.08,77.653,89.6,89.6V392.387z"/>
			<path d="M468.333,286.573c-23.893-10.24-49.493-15.36-75.093-15.36h-21.333c-4.267,0-7.68,2.56-8.533,6.827
				c-9.387,41.813-42.667,75.093-84.48,84.48c-4.267,0.853-6.827,4.267-6.827,8.533v21.333c0,26.453,5.12,51.2,15.36,75.093
				c0.853,3.413,4.267,5.12,7.68,5.12c0.853,0,1.707,0,2.56-0.853c87.893-17.067,158.72-87.893,175.787-175.787
				C474.307,291.693,471.747,288.28,468.333,286.573z M300.227,454.68c-6.827-19.627-11.093-40.107-11.093-61.44v-14.507
				c43.52-11.947,77.653-46.08,88.747-88.747h14.507c21.333,0,41.813,3.413,61.44,11.093
				C436.76,377.027,376.173,437.613,300.227,454.68z"/>
		</g>
	</g>
</g>
<g>
</g>
<g>
</g>
<g>
</g>
<g>
</g>
<g>
</g>
<g>
</g>
<g>
</g>
<g>
</g>
<g>
</g>
<g>
</g>
<g>
</g>
<g>
</g>
<g>
</g>
<g>
</g>
<g>
</g>
</svg>
