<?xml version="1.0" encoding="iso-8859-1"?>
<!-- Generator: Adobe Illustrator 19.0.0, SVG Export Plug-In . SVG Version: 6.00 Build 0)  -->
<svg version="1.1" id="Layer_1" xmlns="http://www.w3.org/2000/svg" xmlns:xlink="http://www.w3.org/1999/xlink" x="0px" y="0px"
	 viewBox="0 0 512 512" style="enable-background:new 0 0 512 512;" xml:space="preserve">
<g transform="translate(1 1)">
	<g>
		<g>
			<path d="M255-1C114.2-1-1,114.2-1,255s115.2,256,256,256s256-115.2,256-256S395.8-1,255-1z M255,493.933
				c-131.413,0-238.933-107.52-238.933-238.933S123.587,16.067,255,16.067S493.933,123.587,493.933,255S386.413,493.933,255,493.933
				z"/>
			<path d="M255,50.2c-98.598,0-181.503,70.615-200.641,163.769c-0.294,0.578-0.545,1.177-0.746,1.778
				C51.053,228.547,50.2,242.2,50.2,255c0,9.448,0.469,19.36,2.085,29.051c12.276,85.484,77.845,154.366,161.685,171.59
				c0.578,0.294,1.177,0.545,1.777,0.745c12.8,2.56,26.453,3.413,39.253,3.413c8.776,0,17.952-0.402,26.705-1.754
				C381.847,444.856,459.8,358.593,459.8,255C459.8,142.36,367.64,50.2,255,50.2z M413.743,354.891l-27.33-5.171l-18.773-36.693
				c3.413-5.973,5.973-11.947,7.68-18.773l39.253-12.8L438,296.827C433.203,317.702,424.894,337.274,413.743,354.891z
				 M441.027,278.893l-19.627-12.8c-2.56-1.707-5.12-1.707-7.68-0.853l-46.933,15.36c-2.56,0.853-4.267,3.413-5.12,5.973
				c-1.707,7.68-5.12,15.36-9.387,23.04c-0.853,2.56-0.853,5.12,0,7.68l22.187,44.373c0.853,1.707,3.413,3.413,5.973,4.267
				l21.196,5.935c-9.485,11.863-20.373,22.56-32.406,31.838l-4.15-22.412c0-2.56-1.707-5.12-4.267-5.973l-44.373-22.187
				c-2.56-1.707-5.12-1.707-7.68,0c-6.827,3.413-14.507,6.827-23.04,9.387c-2.56,0-5.12,2.56-5.973,5.12l-15.36,46.933
				c-0.853,2.56-0.853,5.12,0.853,6.827l12.8,19.627c-15.36,1.707-30.72,1.707-46.08,0l11.947-20.48
				c1.707-2.56,1.707-5.12,0.853-7.68l-16.213-46.933c-0.853-2.56-3.413-4.267-5.973-5.12c-7.68-1.707-16.213-5.12-23.04-9.387
				c-2.56-0.853-5.12-0.853-7.68,0l-44.373,22.187c-1.707,0.853-3.413,3.413-4.267,5.973L139,402.337
				c-11.92-9.417-22.679-20.244-32.026-32.221l22.586-4.183c2.56,0,5.12-1.707,5.973-4.267l21.333-45.227
				c1.707-2.56,1.707-5.12,0-7.68c-3.413-6.827-6.827-14.507-9.387-23.04c0-2.56-2.56-5.12-5.12-5.973l-46.933-15.36
				c-2.56-0.853-5.12-0.853-6.827,0.853l-19.627,12.8c-0.853-7.68-1.707-15.36-1.707-23.04c0-0.964,0.022-1.924,0.037-2.885
				c0.1-4.094,0.378-8.188,0.583-12.282c0.204-2.523,0.461-5.032,0.765-7.526l19.095,12.453c2.56,1.707,5.12,1.707,9.387,0
				l46.933-16.213c2.56-0.853,4.267-3.413,5.12-5.973c1.707-7.68,5.12-16.213,9.387-23.04c0.853-2.56,0.853-5.12,0-7.68
				l-22.187-44.373c-0.853-1.707-3.413-3.413-5.973-4.267L107.663,139c9.417-11.92,20.244-22.679,32.221-32.026l4.183,22.586
				c0,2.56,1.707,5.12,4.267,5.973l44.373,21.333c2.56,1.707,5.12,1.707,7.68,0c6.827-3.413,14.507-6.827,23.04-9.387
				c2.56,0,5.12-2.56,5.973-5.12l16.213-46.933c0.853-2.56,0.853-5.12-0.853-7.68l-12.453-19.095
				c7.444-0.907,15.015-1.385,22.693-1.385c7.678,0,15.25,0.478,22.693,1.385L265.24,87.747c-1.707,2.56-1.707,5.12,0,8.533
				l15.36,46.933c0.853,2.56,3.413,4.267,5.973,5.12c7.68,1.707,15.36,5.12,23.04,9.387c2.56,0.853,5.12,0.853,7.68,0l44.373-22.187
				c1.707-0.853,3.413-3.413,4.267-5.973l5.747-21.347c11.693,9.325,22.259,20.008,31.451,31.81l-21.839,4.044
				c-2.56,0-5.12,1.707-5.973,4.267l-22.187,44.373c-1.707,2.56-1.707,5.12,0,7.68c3.413,6.827,6.827,14.507,9.387,23.04
				c0,2.56,2.56,5.12,5.12,5.973l46.933,16.213c2.56,0.853,5.12,0.853,6.827,0l19.627-12.8c0.838,7.541,1.671,15.081,1.701,22.622
				c-0.003,1.228-0.02,2.452-0.047,3.675C442.488,265.704,441.759,272.299,441.027,278.893z M295.591,438.271L280.6,415.427
				l12.8-39.253c6.827-1.707,12.8-4.267,18.773-7.68l36.693,18.773l5.117,27.044C336.255,425.393,316.571,433.6,295.591,438.271z
				 M155.398,413.924l4.882-25.804l36.693-18.773c5.973,3.413,11.947,5.973,18.773,7.68l12.8,39.253l-14.394,21.934
				C193.025,433.479,173.215,425.157,155.398,413.924z M71.921,296.465l22.653-14.158l39.253,12.8
				c1.707,6.827,4.267,12.8,7.68,18.773l-18.773,36.693l-26.09,4.936C85.231,337.632,76.76,317.719,71.921,296.465z M96.076,155.398
				l25.804,4.882l18.773,36.693c-3.413,5.973-5.973,11.947-7.68,18.773l-39.253,12.8l-21.934-14.394
				C76.521,193.025,84.843,173.215,96.076,155.398z M213.535,71.921l14.158,22.653l-12.8,39.253
				c-6.827,1.707-12.8,4.267-18.773,7.68l-36.693-18.773l-4.936-26.09C172.368,85.231,192.281,76.76,213.535,71.921z
				 M353.983,95.689l-5.117,27.045l-36.693,18.773c-5.973-3.413-11.947-5.973-18.773-7.68l-12.8-39.253l14.991-22.844
				C316.571,76.4,336.255,84.607,353.983,95.689z M438,213.173l-23.427,15.374l-39.253-12.8c-1.707-6.827-4.267-12.8-7.68-18.773
				l18.773-36.693l27.33-5.171C424.894,172.726,433.203,192.298,438,213.173z"/>
			<path d="M255,280.6c-18.773,0-34.133,15.36-34.133,34.133c0,18.773,15.36,34.133,34.133,34.133
				c18.773,0,34.133-15.36,34.133-34.133C289.133,295.96,273.773,280.6,255,280.6z M255,331.8c-9.387,0-17.067-7.68-17.067-17.067
				s7.68-17.067,17.067-17.067s17.067,7.68,17.067,17.067S264.387,331.8,255,331.8z"/>
			<path d="M314.733,220.867c-18.773,0-34.133,15.36-34.133,34.133c0,18.773,15.36,34.133,34.133,34.133
				c18.773,0,34.133-15.36,34.133-34.133C348.867,236.227,333.507,220.867,314.733,220.867z M314.733,272.067
				c-9.387,0-17.067-7.68-17.067-17.067s7.68-17.067,17.067-17.067S331.8,245.613,331.8,255S324.12,272.067,314.733,272.067z"/>
			<path d="M255,229.4c18.773,0,34.133-15.36,34.133-34.133c0-18.773-15.36-34.133-34.133-34.133
				c-18.773,0-34.133,15.36-34.133,34.133C220.867,214.04,236.227,229.4,255,229.4z M255,178.2c9.387,0,17.067,7.68,17.067,17.067
				s-7.68,17.067-17.067,17.067s-17.067-7.68-17.067-17.067S245.613,178.2,255,178.2z"/>
			<path d="M195.267,220.867c-18.773,0-34.133,15.36-34.133,34.133c0,18.773,15.36,34.133,34.133,34.133
				c18.773,0,34.133-15.36,34.133-34.133C229.4,236.227,214.04,220.867,195.267,220.867z M195.267,272.067
				c-9.387,0-17.067-7.68-17.067-17.067s7.68-17.067,17.067-17.067s17.067,7.68,17.067,17.067S204.653,272.067,195.267,272.067z"/>
		</g>
	</g>
</g>
<g>
</g>
<g>
</g>
<g>
</g>
<g>
</g>
<g>
</g>
<g>
</g>
<g>
</g>
<g>
</g>
<g>
</g>
<g>
</g>
<g>
</g>
<g>
</g>
<g>
</g>
<g>
</g>
<g>
</g>
</svg>
