<?xml version="1.0" encoding="iso-8859-1"?>
<!-- Generator: Adobe Illustrator 19.0.0, SVG Export Plug-In . SVG Version: 6.00 Build 0)  -->
<svg version="1.1" id="Layer_1" xmlns="http://www.w3.org/2000/svg" xmlns:xlink="http://www.w3.org/1999/xlink" x="0px" y="0px"
	 viewBox="0 0 512 512" style="enable-background:new 0 0 512 512;" xml:space="preserve">
<g transform="translate(1 1)">
	<g>
		<g>
			<path d="M255-1C114.2-1-1,114.2-1,255s115.2,256,256,256s256-115.2,256-256S395.8-1,255-1z M255,493.933
				c-131.413,0-238.933-107.52-238.933-238.933S123.587,16.067,255,16.067S493.933,123.587,493.933,255S386.413,493.933,255,493.933
				z"/>
			<path d="M42.52,246.467h86.187c17.067,0,32.427-10.24,38.4-27.307l0.853-1.707c6.827-16.213,3.413-33.28-8.533-45.227
				l-61.44-61.44c-0.853-1.707-3.413-2.56-5.973-2.56c-2.56,0.853-4.267,1.707-5.973,3.413C55.32,147.48,37.4,191,33.987,237.08
				c0,2.56,0.853,5.12,2.56,6.827S39.96,246.467,42.52,246.467z M92.867,129.56l54.613,54.613c6.827,6.827,8.533,17.067,5.12,26.453
				l-0.853,2.56c-3.413,10.24-11.947,16.213-22.187,16.213H51.907C56.173,192.707,70.68,158.573,92.867,129.56z"/>
			<path d="M170.52,159.427c7.68,7.68,18.773,11.947,29.013,11.947c5.973,0,11.093-0.853,16.213-2.56
				c1.707-0.853,3.413-1.707,5.12-2.56c15.36-5.973,25.6-21.333,25.6-38.4V42.52c0-2.56-0.853-5.12-3.413-5.973
				c-1.707-1.707-4.267-2.56-6.827-2.56c-46.933,4.267-90.453,22.187-126.293,52.907c-1.707,1.707-2.56,3.413-2.56,5.973
				c0,1.707,0.853,4.267,2.56,5.973L170.52,159.427z M229.4,51.907v75.947c0,10.24-5.973,18.773-14.507,22.187
				c-1.707,0.853-4.267,1.707-5.973,2.56c-8.533,4.267-18.773,1.707-25.6-5.12l-53.76-53.76
				C158.573,70.68,192.707,56.173,229.4,51.907z"/>
			<path d="M289.133,167.107c1.707,0.853,2.56,0.853,4.267,1.707c5.12,2.56,10.24,3.413,15.36,3.413
				c11.093,0,21.333-4.267,29.867-12.8l61.44-61.44c1.707-0.853,2.56-3.413,2.56-5.973c-0.853-2.56-1.707-4.267-3.413-5.973
				c-35.84-29.867-79.36-48.64-126.293-52.053c-2.56,0-5.12,0.853-6.827,2.56s-2.56,3.413-2.56,5.973v87.04
				C263.533,145.773,273.773,161.133,289.133,167.107z M280.6,51.907c36.693,4.267,70.827,18.773,99.84,41.813l-54.613,54.613
				c-6.827,6.827-17.067,8.533-25.6,5.12c-1.707-0.853-2.56-0.853-4.267-1.707c-9.387-4.267-15.36-12.8-15.36-22.187V51.907z"/>
			<path d="M168.813,289.987l-0.853-0.853c-5.973-15.36-21.333-25.6-37.547-25.6H42.52c-2.56,0-5.12,0.853-6.827,2.56
				c-1.707,1.707-2.56,4.267-2.56,6.827c3.413,46.08,22.187,89.6,52.053,125.44c1.707,2.56,4.267,3.413,6.827,3.413
				c2.56,0,5.12-1.707,6.827-3.413l62.293-62.293C172.227,324.12,175.64,306.2,168.813,289.987z M148.333,324.973L92.867,380.44
				c-22.187-29.013-36.693-63.147-40.96-99.84h78.507c9.387,0,17.92,5.973,22.187,15.36v1.707
				C156.867,307.053,155.16,318.147,148.333,324.973z"/>
			<path d="M342.04,215.747c0.853,1.707,0.853,3.413,1.707,5.12c5.12,15.36,20.48,25.6,37.547,25.6h86.187
				c2.56,0,5.12-0.853,6.827-2.56c1.707-1.707,2.56-4.267,2.56-6.827c-3.413-46.933-21.333-90.453-52.053-126.293
				c-1.707-1.707-3.413-2.56-5.973-2.56c-1.707,0-4.267,0.853-5.973,2.56l-61.44,60.587
				C339.48,183.32,336.067,201.24,342.04,215.747z M362.52,184.173l55.467-53.76c23.04,29.013,37.547,63.147,41.813,99.84h-77.653
				c-10.24,0-18.773-5.973-22.187-14.507c-0.853-2.56-1.707-4.267-2.56-5.973C353.987,201.24,355.693,191,362.52,184.173z"/>
			<path d="M467.48,263.533h-89.6c-16.213,0-31.573,10.24-37.547,25.6l-0.853,2.56c-6.827,15.36-3.413,32.427,8.533,44.373
				l63.147,63.147c1.707,1.707,3.413,2.56,5.973,2.56s5.12-0.853,6.827-2.56c29.867-35.84,48.64-79.36,52.053-126.293
				c0-2.56-0.853-5.12-2.56-6.827S470.04,263.533,467.48,263.533z M417.133,380.44l-56.32-56.32
				c-6.827-6.827-8.533-17.067-5.12-25.6l0.853-3.413c3.413-8.533,11.947-14.507,21.333-14.507h81.067
				C453.827,317.293,440.173,351.427,417.133,380.44z"/>
			<path d="M221.72,340.333l-2.56-0.853c-15.36-6.827-33.28-3.413-45.227,8.533l-63.147,63.147c-1.707,1.707-2.56,3.413-2.56,5.973
				s0.853,4.267,2.56,5.973c35.84,30.72,79.36,49.493,127.147,52.907c2.56,0,4.267-0.853,5.973-1.707
				c1.707-1.707,2.56-3.413,2.56-5.973V377.88C246.467,361.667,237.08,346.307,221.72,340.333z M229.4,458.093
				c-36.693-4.267-70.827-18.773-99.84-41.813l56.32-57.173c6.827-6.827,17.92-9.387,26.453-5.12l2.56,0.853
				c8.533,4.267,14.507,12.8,14.507,22.187V458.093z"/>
			<path d="M335.213,347.16c-11.947-11.947-29.013-15.36-43.52-9.387l-1.707,0.853c-16.213,5.973-26.453,21.333-26.453,38.4v90.453
				c0,1.707,0.853,4.267,2.56,5.973s3.413,2.56,5.973,2.56C319,472.6,362.52,454.68,398.36,423.107
				c2.56-1.707,3.413-4.267,3.413-5.973s-0.853-4.267-2.56-5.973L335.213,347.16z M280.6,458.093v-81.067
				c0-10.24,5.973-18.773,15.36-22.187l1.707-0.853c2.56-0.853,5.973-1.707,8.533-1.707c5.973,0,11.947,2.56,17.067,7.68
				l57.173,57.173C351.427,439.32,317.293,453.827,280.6,458.093z"/>
			<path d="M255,306.2c-5.12,0-8.533,3.413-8.533,8.533s3.413,8.533,8.533,8.533s8.533-3.413,8.533-8.533S260.12,306.2,255,306.2z"
				/>
			<path d="M306.2,255c0,5.12,3.413,8.533,8.533,8.533s8.533-3.413,8.533-8.533s-3.413-8.533-8.533-8.533S306.2,249.88,306.2,255z"
				/>
			<path d="M255,203.8c5.12,0,8.533-3.413,8.533-8.533s-3.413-8.533-8.533-8.533s-8.533,3.413-8.533,8.533S249.88,203.8,255,203.8z"
				/>
			<path d="M186.733,255c0,5.12,3.413,8.533,8.533,8.533S203.8,260.12,203.8,255s-3.413-8.533-8.533-8.533
				S186.733,249.88,186.733,255z"/>
		</g>
	</g>
</g>
<g>
</g>
<g>
</g>
<g>
</g>
<g>
</g>
<g>
</g>
<g>
</g>
<g>
</g>
<g>
</g>
<g>
</g>
<g>
</g>
<g>
</g>
<g>
</g>
<g>
</g>
<g>
</g>
<g>
</g>
</svg>
