<?xml version="1.0" encoding="iso-8859-1"?>
<!-- Generator: Adobe Illustrator 19.0.0, SVG Export Plug-In . SVG Version: 6.00 Build 0)  -->
<svg version="1.1" id="Layer_1" xmlns="http://www.w3.org/2000/svg" xmlns:xlink="http://www.w3.org/1999/xlink" x="0px" y="0px"
	 viewBox="0 0 512 512" style="enable-background:new 0 0 512 512;" xml:space="preserve">
<g transform="translate(1 1)">
	<g>
		<g>
			<path d="M255-1C114.2-1-1,114.2-1,255s115.2,256,256,256s256-115.2,256-256S395.8-1,255-1z M255,493.933
				c-131.413,0-238.933-107.52-238.933-238.933S123.587,16.067,255,16.067S493.933,123.587,493.933,255S386.413,493.933,255,493.933
				z"/>
			<path d="M459.8,255c0-41.452-12.493-80.122-33.882-112.454c-0.194-0.984-0.549-1.913-1.104-2.746
				c-15.36-22.187-33.28-40.96-55.467-55.467c-0.927-0.618-2.081-1.005-3.293-1.175c-21.335-13.865-45.377-23.87-71.122-29.011
				c-0.49-0.211-0.995-0.4-1.531-0.533c-25.6-5.12-52.053-5.12-77.653,0c-1.387,0-2.63,0.428-3.678,1.159
				c-24.553,5.291-47.506,15.011-67.971,28.286c-1.571,0.013-3.038,0.435-4.298,1.275c-22.187,15.36-40.96,33.28-55.467,55.467
				c-0.781,1.172-1.187,2.704-1.253,4.264c-13.56,20.897-23.426,44.385-28.641,69.526c-0.345,0.672-0.634,1.389-0.826,2.156
				C51.053,228.547,50.2,242.2,50.2,255s0.853,25.6,3.413,39.253c0,1.387,0.428,2.63,1.159,3.678
				c5.291,24.553,15.011,47.506,28.286,67.972c0.013,1.571,0.435,3.038,1.275,4.297c15.36,22.187,33.28,40.96,55.467,55.467
				c1.172,0.781,2.704,1.187,4.264,1.253c20.897,13.56,44.385,23.426,69.526,28.641c0.672,0.345,1.389,0.634,2.156,0.826
				c12.8,2.56,26.453,3.413,39.253,3.413s26.453-0.853,38.4-3.413c1.196,0,2.284-0.32,3.233-0.875
				c25.082-5.233,48.516-15.093,69.367-28.635c1.211-0.145,2.345-0.543,3.346-1.21c22.187-15.36,40.96-33.28,55.467-55.467
				c0.51-0.765,0.849-1.69,1.054-2.669C447.288,335.183,459.8,296.485,459.8,255z M262.008,442.588
				c-0.98,0.039-1.961,0.071-2.943,0.093c-1.193,0.026-2.388,0.043-3.586,0.046c-0.175,0.001-0.349,0.005-0.524,0.005
				c-1.471,0-2.937-0.022-4.4-0.056c-0.472-0.011-0.945-0.03-1.417-0.045c-0.926-0.029-1.85-0.064-2.773-0.106
				c-0.728-0.034-1.456-0.072-2.184-0.114c-0.546-0.031-1.09-0.068-1.635-0.104c-6.073-0.411-12.169-1.118-18.265-2.134
				c-4.267-23.893-5.12-46.933,0.853-70.827c0-4.267-1.707-7.68-5.973-9.387c-4.267-1.707-8.533-3.413-11.947-5.12
				c-4.267-2.56-8.533-0.853-11.093,2.56c-12.8,19.627-29.867,36.693-50.347,49.493c-16.213-11.947-30.72-26.453-42.667-42.667
				c12.8-19.627,29.867-36.693,49.493-50.347c3.413-2.56,4.267-7.68,2.56-11.093c-2.56-3.413-3.413-7.68-5.12-11.093
				c-0.853-4.267-5.12-6.827-9.387-5.973c-23.04,4.267-46.933,4.267-70.827-0.853c-1.045-5.749-1.767-11.82-2.172-18.013
				c-0.015-0.239-0.032-0.478-0.046-0.718c-0.056-0.906-0.101-1.816-0.143-2.727c-0.034-0.75-0.062-1.5-0.086-2.252
				c-0.02-0.61-0.043-1.22-0.057-1.831c-0.033-1.439-0.055-2.88-0.055-4.326c0-1.518,0.022-3.031,0.058-4.541
				c0.005-0.237,0.014-0.476,0.02-0.713c0.251-9.013,1.152-17.869,2.645-26.53c22.726-4.897,46.268-4.846,69.81-0.642
				c4.267,0,7.68-1.707,9.387-5.973c1.707-3.413,3.413-7.68,5.12-11.093c2.56-4.267,0.853-8.533-2.56-11.093
				c-19.262-12.562-36.048-29.242-48.765-49.217c11.993-16.53,26.6-31.055,43.211-42.943c19.089,12.702,35.718,29.44,49.074,48.639
				c2.56,3.413,7.68,4.267,11.093,2.56c3.413-2.56,6.827-3.413,11.093-5.12c4.267-0.853,6.827-5.12,5.973-9.387
				c-4.162-22.477-4.25-45.767,0.502-69.076c10.115-1.703,20.492-2.604,31.072-2.604c10.276,0,20.361,0.85,30.2,2.459
				c4.77,22.544,4.687,45.882,0.52,69.221c0,4.267,1.707,7.68,5.973,9.387c3.413,1.707,7.68,3.413,11.093,5.12
				c4.267,2.56,8.533,0.853,11.093-2.56c12.622-19.353,29.399-36.209,49.5-48.948c16.576,11.793,31.168,26.21,43.178,42.621
				c-12.763,19.415-29.699,36.31-49.158,49.847c-3.413,2.56-4.267,7.68-2.56,11.093c2.56,3.413,3.413,6.827,5.12,11.093
				c0.853,4.267,5.12,6.827,9.387,5.973c22.997-4.259,46.845-4.265,70.694,0.827c1.74,10.154,2.665,20.576,2.687,31.201
				c-0.027,9.264-0.875,19.336-2.555,29.413c-23.04,5.12-46.933,5.12-70.827,0.853c-4.267,0-7.68,1.707-9.387,5.973
				s-3.413,8.533-5.12,11.947c-2.56,4.267-0.853,8.533,2.56,11.093c19.627,12.8,36.693,29.867,49.493,50.347
				c-11.947,16.213-26.453,30.72-42.667,42.667c-19.627-12.8-36.693-29.867-50.347-49.493c-2.56-3.413-7.68-4.267-11.093-2.56
				c-3.413,2.56-6.827,3.413-11.093,5.12c-4.267,0.853-6.827,5.12-5.973,9.387c4.267,23.04,4.267,46.933-0.853,70.827
				c-7.292,1.268-14.703,2.063-22.187,2.389C262.456,442.571,262.232,442.58,262.008,442.588z M73.813,304.014
				c20.272,3.47,40.996,3.933,61.72,0.479c-16.61,12.458-30.975,27.162-43.094,44.11C84.408,334.749,78.107,319.785,73.813,304.014z
				 M206.056,436.206c-15.819-4.3-30.827-10.621-44.719-18.68c16.974-12.34,31.697-27.282,44.17-43.912
				C202.029,394.477,202.522,415.342,206.056,436.206z M92.439,161.396c12.12,16.948,26.484,31.652,43.094,44.11
				c-20.732-2.764-41.463-2.728-61.741,0.557C78.086,190.265,84.395,175.274,92.439,161.396z M205.507,135.533
				c-12.458-16.61-27.162-30.975-44.11-43.094c13.855-8.031,28.819-14.332,44.589-18.626
				C202.516,94.085,202.053,114.809,205.507,135.533z M303.045,73.549c15.949,4.25,31.084,10.551,45.092,18.617
				c-17.111,12.177-31.945,26.631-44.497,43.367C306.415,114.719,306.369,93.905,303.045,73.549z M436.23,206.145
				c-20.557-3.611-41.586-4.144-62.617-0.639c16.824-12.618,31.34-27.544,43.557-44.769
				C425.412,174.824,431.867,190.065,436.23,206.145z M303.64,374.467c12.552,16.736,27.386,31.19,44.497,43.367
				c-13.985,8.053-29.095,14.346-45.016,18.596C306.629,416.081,307.108,395.274,303.64,374.467z M372.76,304.493
				c21.163,3.527,42.326,2.963,63.49-0.71c-4.369,16.128-10.843,31.412-19.113,45.536
				C404.707,332.07,389.602,317.125,372.76,304.493z"/>
			<path d="M255,280.6c-18.773,0-34.133,15.36-34.133,34.133c0,18.773,15.36,34.133,34.133,34.133
				c18.773,0,34.133-15.36,34.133-34.133C289.133,295.96,273.773,280.6,255,280.6z M255,331.8c-9.387,0-17.067-7.68-17.067-17.067
				s7.68-17.067,17.067-17.067s17.067,7.68,17.067,17.067S264.387,331.8,255,331.8z"/>
			<path d="M314.733,289.133c18.773,0,34.133-15.36,34.133-34.133c0-18.773-15.36-34.133-34.133-34.133
				c-18.773,0-34.133,15.36-34.133,34.133C280.6,273.773,295.96,289.133,314.733,289.133z M314.733,237.933
				c9.387,0,17.067,7.68,17.067,17.067s-7.68,17.067-17.067,17.067s-17.067-7.68-17.067-17.067S305.347,237.933,314.733,237.933z"/>
			<path d="M255,229.4c18.773,0,34.133-15.36,34.133-34.133c0-18.773-15.36-34.133-34.133-34.133
				c-18.773,0-34.133,15.36-34.133,34.133C220.867,214.04,236.227,229.4,255,229.4z M255,178.2c9.387,0,17.067,7.68,17.067,17.067
				s-7.68,17.067-17.067,17.067s-17.067-7.68-17.067-17.067S245.613,178.2,255,178.2z"/>
			<path d="M195.267,220.867c-18.773,0-34.133,15.36-34.133,34.133c0,18.773,15.36,34.133,34.133,34.133
				c18.773,0,34.133-15.36,34.133-34.133C229.4,236.227,214.04,220.867,195.267,220.867z M195.267,272.067
				c-9.387,0-17.067-7.68-17.067-17.067s7.68-17.067,17.067-17.067s17.067,7.68,17.067,17.067S204.653,272.067,195.267,272.067z"/>
		</g>
	</g>
</g>
<g>
</g>
<g>
</g>
<g>
</g>
<g>
</g>
<g>
</g>
<g>
</g>
<g>
</g>
<g>
</g>
<g>
</g>
<g>
</g>
<g>
</g>
<g>
</g>
<g>
</g>
<g>
</g>
<g>
</g>
</svg>
