<?xml version="1.0" encoding="iso-8859-1"?>
<!-- Generator: Adobe Illustrator 19.0.0, SVG Export Plug-In . SVG Version: 6.00 Build 0)  -->
<svg version="1.1" id="Layer_1" xmlns="http://www.w3.org/2000/svg" xmlns:xlink="http://www.w3.org/1999/xlink" x="0px" y="0px"
	 viewBox="0 0 512 512" style="enable-background:new 0 0 512 512;" xml:space="preserve">
<g transform="translate(1 1)">
	<g>
		<g>
			<path d="M255-1C114.2-1-1,114.2-1,255s115.2,256,256,256s256-115.2,256-256S395.8-1,255-1z M255,493.933
				c-131.413,0-238.933-107.52-238.933-238.933S123.587,16.067,255,16.067S493.933,123.587,493.933,255S386.413,493.933,255,493.933
				z"/>
			<path d="M289.133,314.733c0-18.773-15.36-34.133-34.133-34.133c-18.773,0-34.133,15.36-34.133,34.133
				c0,18.773,15.36,34.133,34.133,34.133C273.773,348.867,289.133,333.507,289.133,314.733z M255,331.8
				c-9.387,0-17.067-7.68-17.067-17.067s7.68-17.067,17.067-17.067s17.067,7.68,17.067,17.067S264.387,331.8,255,331.8z"/>
			<path d="M314.733,220.867c-18.773,0-34.133,15.36-34.133,34.133c0,18.773,15.36,34.133,34.133,34.133
				c18.773,0,34.133-15.36,34.133-34.133C348.867,236.227,333.507,220.867,314.733,220.867z M314.733,272.067
				c-9.387,0-17.067-7.68-17.067-17.067s7.68-17.067,17.067-17.067S331.8,245.613,331.8,255S324.12,272.067,314.733,272.067z"/>
			<path d="M220.867,195.267c0,18.773,15.36,34.133,34.133,34.133c18.773,0,34.133-15.36,34.133-34.133
				c0-18.773-15.36-34.133-34.133-34.133C236.227,161.133,220.867,176.493,220.867,195.267z M255,178.2
				c9.387,0,17.067,7.68,17.067,17.067s-7.68,17.067-17.067,17.067s-17.067-7.68-17.067-17.067S245.613,178.2,255,178.2z"/>
			<path d="M195.267,220.867c-18.773,0-34.133,15.36-34.133,34.133c0,18.773,15.36,34.133,34.133,34.133
				c18.773,0,34.133-15.36,34.133-34.133C229.4,236.227,214.04,220.867,195.267,220.867z M195.267,272.067
				c-9.387,0-17.067-7.68-17.067-17.067s7.68-17.067,17.067-17.067s17.067,7.68,17.067,17.067S204.653,272.067,195.267,272.067z"/>
			<path d="M41.667,234.52l8.533,2.56c19.627,5.973,39.253,9.387,59.733,9.387c9.387,0,18.773-0.853,29.867-3.413
				c3.413,0,5.973-3.413,6.827-6.827c2.56-17.067,9.387-33.28,19.627-46.933c2.56-3.413,2.56-6.827,0-10.24
				c-17.92-23.04-40.107-42.667-67.413-57.173l-8.533-4.267c-4.267-1.707-8.533-0.853-11.093,2.56
				c-23.04,30.72-38.4,66.56-43.52,104.96C34.84,229.4,37.4,233.667,41.667,234.52z M88.6,136.387l1.707,0.853
				c23.04,11.947,42.667,28.16,58.027,47.787c-8.533,12.8-14.507,27.307-17.92,42.667c-24.747,3.413-50.347,0.853-75.093-6.827
				h-2.56C58.733,190.147,69.827,161.987,88.6,136.387z"/>
			<path d="M163.693,330.093c2.56-3.413,2.56-6.827,0-10.24c-10.24-13.653-17.067-29.867-19.627-46.933
				c0-3.413-3.413-5.973-6.827-6.827c-29.013-4.267-58.88-1.707-87.893,6.827l-8.533,2.56c-4.267,0.853-6.827,5.12-5.973,9.387
				c5.12,38.4,20.48,74.24,43.52,104.96c1.707,2.56,4.267,3.413,6.827,3.413c1.707,0,3.413-0.853,2.56-1.707l8.533-4.267
				C122.733,372.76,145.773,353.987,163.693,330.093z M87.747,372.76C69.827,348.013,57.88,319,52.76,289.133l1.707-0.853
				c24.747-6.827,50.347-9.387,75.093-6.827c3.413,15.36,9.387,29.867,17.92,42.667c-15.36,19.627-34.987,35.84-58.027,47.787
				L87.747,372.76z"/>
			<path d="M272.92,145.773c17.067,2.56,33.28,9.387,46.933,19.627c1.707,0.853,3.413,1.707,5.12,1.707
				c1.707,0,3.413-0.853,5.973-0.853c23.893-18.773,43.52-40.96,57.173-67.413l4.267-8.533c1.707-4.267,0.853-8.533-2.56-11.093
				c-30.72-23.04-66.56-38.4-104.96-43.52c-4.267-0.853-8.533,1.707-9.387,5.973l-2.56,8.533
				c-9.387,29.013-11.093,58.88-6.827,88.747C266.093,142.36,269.507,144.92,272.92,145.773z M289.133,55.32v-2.56
				c30.72,5.973,58.88,17.067,83.627,34.987l-0.853,1.707c-11.093,22.187-27.307,41.813-47.787,58.027
				c-12.8-8.533-27.307-14.507-42.667-17.92C278.893,104.813,281.453,80.067,289.133,55.32z"/>
			<path d="M122.733,97.987c14.507,26.453,33.28,49.493,57.173,67.413c1.707,0.853,3.413,1.707,5.12,1.707s3.413-0.853,5.973-3.413
				c13.653-10.24,29.867-17.067,46.933-19.627c3.413,0,5.973-3.413,6.827-6.827c4.267-29.013,1.707-58.88-6.827-87.893l-2.56-8.533
				c-1.707-4.267-5.12-6.827-9.387-5.973c-38.4,5.12-74.24,20.48-104.96,43.52c-3.413,2.56-4.267,7.68-2.56,11.093L122.733,97.987z
				 M220.867,52.76v1.707c6.827,24.747,9.387,50.347,6.827,75.093c-15.36,3.413-29.867,9.387-42.667,17.92
				c-19.627-15.36-35.84-34.987-47.787-58.027l-0.853-1.707C161.987,69.827,190.147,57.88,220.867,52.76z"/>
			<path d="M237.08,364.227c-17.067-2.56-33.28-9.387-46.933-19.627c-3.413-2.56-6.827-2.56-10.24,0
				c-23.04,17.92-42.667,40.107-57.173,67.413l-4.267,8.533c-1.707,4.267-0.853,8.533,2.56,11.093
				c30.72,23.04,66.56,38.4,104.96,43.52h0.853c3.413,0,6.827-2.56,7.68-6.827l2.56-8.533c8.533-28.16,11.093-58.027,6.827-88.747
				C243.907,367.64,240.493,365.08,237.08,364.227z M220.867,455.533l-0.853,1.707c-29.867-5.12-58.88-17.067-83.627-34.987
				l0.853-1.707c11.947-23.04,28.16-42.667,47.787-58.027c12.8,8.533,27.307,14.507,42.667,17.92
				C231.107,406.893,228.547,431.64,220.867,455.533z"/>
			<path d="M386.413,413.72c-12.8-26.453-32.427-48.64-57.173-67.413c-3.413-2.56-6.827-2.56-10.24,0
				c-13.653,10.24-29.867,17.067-46.933,19.627c-3.413,0-5.973,3.413-6.827,6.827c-4.267,29.867-1.707,59.733,6.827,87.893
				l2.56,8.533c1.707,3.413,5.12,5.973,8.533,5.973c0.853,0,0.853,0,0,0.853c38.4-5.12,74.24-20.48,104.96-43.52
				c3.413-2.56,4.267-7.68,2.56-11.093L386.413,413.72z M289.133,457.24l-0.853-1.707c-7.68-23.893-9.387-49.493-6.827-75.093
				c15.36-3.413,29.867-9.387,42.667-17.92c20.48,16.213,36.693,35.84,47.787,58.027l0.853,1.707
				C348.013,440.173,319,452.12,289.133,457.24z"/>
			<path d="M345.453,180.76c-2.56,3.413-2.56,6.827,0,10.24c10.24,13.653,17.067,29.867,19.627,46.933
				c0,3.413,3.413,5.973,6.827,6.827c9.387,0.853,19.627,1.707,29.013,1.707c20.48,0,40.107-3.413,59.733-7.68l8.533-2.56
				c4.267-1.707,6.827-5.12,5.973-9.387c-5.12-38.4-20.48-74.24-43.52-104.96c-2.56-3.413-7.68-4.267-11.093-2.56l-7.68,4.267
				C386.413,136.387,364.227,156.013,345.453,180.76z M420.547,138.093l1.707-0.853c17.92,24.747,29.867,53.76,34.987,83.627
				l-1.707,0.853c-24.747,7.68-49.493,9.387-75.093,6.827c-3.413-15.36-9.387-29.867-17.92-42.667
				C378.733,165.4,398.36,149.187,420.547,138.093z"/>
			<path d="M467.48,276.333l-8.533-2.56c-28.16-8.533-57.173-11.093-87.893-6.827c-3.413,0-5.973,3.413-6.827,6.827
				c-2.56,17.067-9.387,33.28-19.627,46.933c-2.56,3.413-2.56,7.68,0,10.24c18.773,23.893,40.96,43.52,67.413,57.173l8.533,4.267
				c1.707,0.853,2.56,0.853,4.267,0.853c2.56,0,5.12-1.707,5.12-2.56c23.04-30.72,38.4-66.56,43.52-104.96
				C474.307,281.453,471.747,277.187,467.48,276.333z M422.253,372.76l-1.707-0.853c-22.187-11.093-41.813-27.307-58.027-47.787
				c8.533-12.8,14.507-27.307,17.067-41.813c26.453-3.413,51.2-0.853,75.093,6.827l2.56,0
				C452.12,319,440.173,348.013,422.253,372.76z"/>
		</g>
	</g>
</g>
<g>
</g>
<g>
</g>
<g>
</g>
<g>
</g>
<g>
</g>
<g>
</g>
<g>
</g>
<g>
</g>
<g>
</g>
<g>
</g>
<g>
</g>
<g>
</g>
<g>
</g>
<g>
</g>
<g>
</g>
</svg>
