<?xml version="1.0" encoding="iso-8859-1"?>
<!-- Generator: Adobe Illustrator 19.0.0, SVG Export Plug-In . SVG Version: 6.00 Build 0)  -->
<svg version="1.1" id="Layer_1" xmlns="http://www.w3.org/2000/svg" xmlns:xlink="http://www.w3.org/1999/xlink" x="0px" y="0px"
	 viewBox="0 0 512 512" style="enable-background:new 0 0 512 512;" xml:space="preserve">
<g transform="translate(1 1)">
	<g>
		<g>
			<path d="M255-1C114.2-1-1,114.2-1,255s115.2,256,256,256s256-115.2,256-256S395.8-1,255-1z M255,493.933
				c-131.413,0-238.933-107.52-238.933-238.933S123.587,16.067,255,16.067S493.933,123.587,493.933,255S386.413,493.933,255,493.933
				z"/>
			<path d="M429.64,148.369c-0.152-0.279-0.318-0.552-0.509-0.814c-0.773-1.245-1.556-2.482-2.354-3.708
				c-5.97-9.266-12.785-18.083-20.328-26.347c-0.017-0.018-0.033-0.036-0.05-0.054c-1.035-1.133-2.078-2.26-3.14-3.372
				c-0.588-0.618-1.187-1.224-1.783-1.834c-0.555-0.567-1.1-1.141-1.662-1.702C362.68,73.315,311.409,50.2,255,50.2
				c-38.482,0-74.569,10.762-105.412,29.417c-1.053,0.202-2.066,0.632-2.962,1.304c-26.453,16.213-49.493,39.253-66.56,66.56
				c-0.405,0.809-0.66,1.716-0.777,2.66c-15.579,25.94-25.576,55.563-28.312,87.184c-0.007,0.078-0.014,0.155-0.021,0.233
				c-0.075,0.874-0.149,1.747-0.212,2.624c-0.094,1.263-0.173,2.523-0.242,3.781c-0.021,0.383-0.039,0.767-0.058,1.151
				c-0.072,1.483-0.131,2.962-0.17,4.435c-0.005,0.19-0.008,0.381-0.012,0.571c-0.039,1.634-0.062,3.263-0.062,4.88
				c0,1.573,0.023,3.157,0.061,4.747c0.006,0.264,0.01,0.528,0.017,0.791c0.035,1.255,0.084,2.515,0.145,3.78
				c1.587,34.984,12.054,67.754,29.194,96.094c0.202,1.053,0.632,2.066,1.303,2.961c16.213,26.453,39.253,49.493,66.56,66.56
				c0.809,0.405,1.716,0.66,2.66,0.777c25.94,15.579,55.563,25.576,87.185,28.312c0.078,0.007,0.155,0.014,0.233,0.021
				c0.874,0.075,1.747,0.149,2.624,0.212c1.263,0.094,2.523,0.173,3.781,0.242c0.383,0.021,0.767,0.039,1.151,0.058
				c1.483,0.072,2.962,0.131,4.435,0.17c0.19,0.005,0.381,0.008,0.571,0.012c1.634,0.039,3.263,0.062,4.88,0.062
				c1.573,0,3.156-0.023,4.745-0.061c0.265-0.006,0.531-0.01,0.796-0.017c1.245-0.035,2.495-0.084,3.748-0.144
				c35.498-1.605,68.716-12.353,97.341-29.938c0.28-0.152,0.555-0.319,0.817-0.511c1.242-0.771,2.478-1.553,3.702-2.35
				c9.268-5.971,18.088-12.788,26.353-20.333c0.015-0.014,0.03-0.027,0.045-0.041c1.135-1.037,2.264-2.082,3.378-3.146
				c0.616-0.586,1.22-1.183,1.828-1.776c0.569-0.557,1.146-1.105,1.709-1.669C436.686,362.679,459.8,311.408,459.8,255
				C459.8,216.01,448.751,179.478,429.64,148.369z M419.085,345.907L370.2,309.613c1.707-3.413,2.56-6.827,4.267-11.093
				l60.732,8.997C431.244,320.994,425.809,333.852,419.085,345.907z M359.601,410.673L319,355.693
				c-2.56-3.413-7.68-4.267-11.093-2.56c-6.827,3.413-13.653,5.973-21.333,8.533c-4.267,0.853-6.827,5.12-5.973,9.387l10.232,68.211
				c-0.745,0.146-1.489,0.295-2.237,0.432c-22.397,3.749-44.793,3.749-67.19,0c-0.748-0.137-1.492-0.286-2.237-0.432l9.379-69.064
				c0.853-4.267-1.707-8.533-5.973-9.387c-7.68-1.707-14.507-5.12-21.333-8.533c-4.267-1.707-8.533-0.853-11.093,2.56
				l-40.731,55.156c-19.696-13.485-36.726-30.611-50.089-50.396L154.307,319c3.413-2.56,4.267-7.68,2.56-11.093
				c-3.413-5.973-5.973-13.653-8.533-21.333c-0.853-4.267-5.12-6.827-9.387-5.973l-68.211,10.232
				c-2.267-11.608-3.469-23.586-3.469-35.832c0-6.045,0.301-12.023,0.867-17.926c0.641-5.828,1.704-11.55,3.4-17.061l68.267,10.24
				c4.267,0.853,8.533-1.707,9.387-5.973c1.707-7.68,5.12-14.507,8.533-21.333c1.707-4.267,0.853-8.533-2.56-11.093l-55.467-40.96
				c13.653-19.627,30.72-36.693,50.347-50.347L191,156.013c2.56,3.413,7.68,4.267,11.093,2.56
				c5.973-3.413,13.653-5.973,21.333-8.533c4.267-0.853,6.827-5.12,5.973-9.387l-10.24-68.267c23.893-4.267,47.787-4.267,71.68,0
				l-10.24,68.267c-0.853,4.267,1.707,8.533,5.973,9.387c7.68,1.707,14.507,5.12,21.333,8.533c4.267,1.707,8.533,0.853,11.093-2.56
				l40.96-55.467c19.627,13.653,36.693,30.72,50.347,50.347l-55.467,40.96c-3.413,2.56-4.267,7.68-2.56,11.093
				c3.413,5.973,5.973,13.653,8.533,21.333c0.853,4.267,5.12,6.827,9.387,5.973l68.267-10.24c2.56,11.947,3.413,23.893,3.413,35.84
				s-0.853,23.893-3.413,35.84l-68.267-10.24c-4.267-0.853-8.533,1.707-9.387,5.973c-1.707,7.68-5.12,14.507-8.533,21.333
				c-1.707,4.267-0.853,8.533,2.56,11.093l55.156,40.731C396.511,380.28,379.385,397.31,359.601,410.673z M307.517,435.199
				l-8.997-60.732c3.413-0.853,7.68-2.56,11.093-4.267l36.293,48.885C333.852,425.809,320.994,431.244,307.517,435.199z
				 M202.604,435.235c-13.354-3.909-26.102-9.27-38.063-15.899l35.846-48.282c3.413,1.707,7.68,2.56,11.093,4.267L202.604,435.235z
				 M75.046,308.334l60.488-8.961c0.853,3.413,2.56,7.68,4.267,11.093l-48.547,36.042C84.51,334.525,79.046,321.738,75.046,308.334z
				 M90.664,164.541l48.282,35.846c-1.707,3.413-2.56,6.827-4.267,11.093l-59.915-8.876
				C78.674,189.25,84.035,176.502,90.664,164.541z M201.666,75.046l8.961,60.488c-3.413,0.853-7.68,2.56-11.093,4.267
				l-36.042-48.547C175.475,84.51,188.262,79.046,201.666,75.046z M307.517,74.801c13.477,3.955,26.335,9.39,38.389,16.114
				L309.613,139.8c-3.413-1.707-7.68-2.56-11.093-4.267L307.517,74.801z M374.467,211.48c-0.853-3.413-2.56-7.68-4.267-11.093
				l48.885-36.293c6.724,12.054,12.159,24.912,16.114,38.389L374.467,211.48z"/>
			<path d="M314.733,220.867c-0.383,0-0.763,0.016-1.144,0.029c-6.052-9.797-14.532-18.058-24.505-23.823
				c0.032-0.598,0.049-1.201,0.049-1.806c0-18.773-15.36-34.133-34.133-34.133c-18.773,0-34.133,15.36-34.133,34.133
				c0,0.771,0.035,1.534,0.086,2.292c-9.63,5.745-17.822,13.828-23.709,23.37c-0.655-0.038-1.313-0.062-1.977-0.062
				c-18.773,0-34.133,15.36-34.133,34.133c0,18.773,15.36,34.133,34.133,34.133c0.324,0,0.645-0.016,0.967-0.025
				c5.928,10.248,14.492,18.919,24.65,24.996c-0.004,0.21-0.016,0.418-0.016,0.629c0,18.773,15.36,34.133,34.133,34.133
				c18.773,0,34.133-15.36,34.133-34.133c0-0.042-0.003-0.083-0.003-0.125c10.521-6.092,19.386-14.957,25.478-25.478
				c0.042,0,0.083,0.003,0.125,0.003c18.773,0,34.133-15.36,34.133-34.133C348.867,236.227,333.507,220.867,314.733,220.867z
				 M255,178.2c9.387,0,17.067,7.68,17.067,17.067s-7.68,17.067-17.067,17.067c-7.378,0-13.684-4.754-16.052-11.343
				c-0.053-0.202-0.116-0.4-0.161-0.604c0-0.958-0.24-1.917-0.673-2.786c-0.106-0.766-0.18-1.541-0.18-2.335
				C237.933,185.88,245.613,178.2,255,178.2z M178.2,255c0-9.387,7.68-17.067,17.067-17.067c0.402,0,0.796,0.033,1.191,0.061
				c0.901,0.673,1.896,1.253,3.076,1.646c4.301,0.956,8.065,3.519,10.546,6.936c1.426,2.491,2.254,5.363,2.254,8.424
				c0,9.387-7.68,17.067-17.067,17.067S178.2,264.387,178.2,255z M255,331.8c-9.387,0-17.067-7.68-17.067-17.067
				c0-0.566,0.031-1.125,0.085-1.677c0.298-0.536,0.559-1.11,0.768-1.736c0.798-7.184,7.57-12.873,14.728-13.578
				c0.491-0.043,0.984-0.076,1.486-0.076c0.581,0,1.154,0.03,1.721,0.088c0.029,0.003,0.057,0.008,0.086,0.011
				c8.545,0.91,15.26,8.191,15.26,16.968C272.067,324.12,264.387,331.8,255,331.8z M284.013,296.813
				c-0.021-0.033-0.045-0.063-0.065-0.096c-5.66-9.04-15.427-15.27-26.637-16.03c-0.047-0.003-0.093-0.008-0.14-0.011
				c-0.719-0.046-1.441-0.077-2.171-0.077c-0.661,0-1.317,0.024-1.97,0.061c-0.314,0.017-0.626,0.046-0.939,0.072
				c-0.287,0.025-0.573,0.049-0.858,0.081c-10.474,1.116-19.907,6.846-25.246,15.999c-5.12-3.413-9.387-7.68-12.8-12.8
				c0.033-0.021,0.063-0.045,0.096-0.065c9.04-5.66,15.27-15.427,16.03-26.637c0.003-0.047,0.008-0.093,0.011-0.14
				c0.046-0.719,0.077-1.441,0.077-2.171c0-0.661-0.024-1.317-0.061-1.97c-0.017-0.314-0.046-0.626-0.072-0.939
				c-0.025-0.287-0.049-0.573-0.081-0.858c-1.116-10.474-6.846-19.907-15.999-25.246c3.413-5.12,7.68-9.387,12.8-12.8
				c0.021,0.033,0.045,0.063,0.065,0.096c5.66,9.04,15.427,15.27,26.636,16.03c0.047,0.003,0.093,0.008,0.14,0.011
				c0.719,0.046,1.441,0.077,2.171,0.077c0.661,0,1.317-0.024,1.97-0.061c0.314-0.017,0.626-0.046,0.939-0.072
				c0.287-0.025,0.574-0.049,0.858-0.081c10.474-1.116,19.907-6.846,25.246-15.999c5.12,3.413,9.387,7.68,12.8,12.8
				c-0.033,0.021-0.063,0.045-0.096,0.065c-9.04,5.66-15.27,15.427-16.03,26.636c-0.003,0.047-0.008,0.093-0.011,0.14
				c-0.046,0.719-0.077,1.441-0.077,2.171c0,0.661,0.024,1.317,0.061,1.97c0.017,0.314,0.046,0.626,0.072,0.939
				c0.025,0.287,0.049,0.574,0.081,0.858c1.116,10.474,6.846,19.907,15.999,25.246C293.4,289.133,289.133,293.4,284.013,296.813z
				 M314.733,272.067c-9.247,0-16.821-7.456-17.045-16.651c0.223-7.499,6.099-14.101,13.632-15.775c1.534,0,3.062-0.623,4.229-1.665
				c9.01,0.432,16.251,7.914,16.251,17.025C331.8,264.387,324.12,272.067,314.733,272.067z"/>
		</g>
	</g>
</g>
<g>
</g>
<g>
</g>
<g>
</g>
<g>
</g>
<g>
</g>
<g>
</g>
<g>
</g>
<g>
</g>
<g>
</g>
<g>
</g>
<g>
</g>
<g>
</g>
<g>
</g>
<g>
</g>
<g>
</g>
</svg>
