<?xml version="1.0" encoding="iso-8859-1"?>
<!-- Generator: Adobe Illustrator 19.0.0, SVG Export Plug-In . SVG Version: 6.00 Build 0)  -->
<svg version="1.1" id="Layer_1" xmlns="http://www.w3.org/2000/svg" xmlns:xlink="http://www.w3.org/1999/xlink" x="0px" y="0px"
	 viewBox="0 0 512 512" style="enable-background:new 0 0 512 512;" xml:space="preserve">
<g transform="translate(1 1)">
	<g>
		<g>
			<path d="M511,255c0-39.877-9.248-77.697-25.693-111.432c-0.268-2.113-1.167-3.861-2.554-5.105
				c-21.41-41.537-53.866-76.545-93.41-101.103c-0.909-0.968-2.073-1.686-3.441-2.102C347.537,12.259,302.745-1,255-1
				c-39.877,0-77.697,9.248-111.432,25.693c-2.113,0.268-3.861,1.167-5.105,2.554C55.839,69.834-1,156.1-1,255
				c0,39.877,9.248,77.697,25.693,111.432c0.268,2.113,1.167,3.861,2.554,5.105C69.834,454.161,156.1,511,255,511
				c39.909,0,77.756-9.263,111.511-25.733c1.631-0.289,3.192-1.055,4.431-2.21C453.888,440.578,511,354.136,511,255z
				 M362.328,468.294c-50.447-1.351-93.698-39.671-98.369-85.609c63.929-4.396,114.764-55.48,118.776-119.516
				c45.2-3.979,84.98-40.127,98.098-85.983c8.478,24.421,13.101,50.602,13.101,77.815
				C493.933,347.878,440.22,428.809,362.328,468.294z M255,144.067c61.44,0,110.933,49.493,110.933,110.933
				S316.44,365.933,255,365.933S144.067,316.44,144.067,255S193.56,144.067,255,144.067z M374.467,48.303V75.8h-25.6
				c-5.12,0-8.533,3.413-8.533,8.533v25.6h-17.067c-5.12,0-8.533,3.413-8.533,8.533s3.413,8.533,8.533,8.533h25.6
				c5.12,0,8.533-3.413,8.533-8.533v-25.6H383c5.12,0,8.533-3.413,8.533-8.533V59.228c32.304,22.639,58.814,53.04,76.761,88.444
				c-1.351,50.447-39.671,93.698-85.609,98.369c-4.396-63.929-55.48-114.764-119.516-118.776
				c-3.979-45.2-40.127-84.98-85.983-98.098C201.606,20.69,227.788,16.067,255,16.067C298.442,16.067,339.268,27.824,374.467,48.303
				z M147.672,41.706c50.447,1.351,93.698,39.671,98.37,85.609c-63.929,4.396-114.764,55.48-118.776,119.516
				c-45.2,3.979-84.98,40.127-98.098,85.983C20.69,308.394,16.067,282.212,16.067,255C16.067,162.122,69.78,81.191,147.672,41.706z
				 M41.706,362.328c1.351-50.447,39.671-93.698,85.609-98.37c4.396,63.929,55.48,114.764,119.516,118.776
				c3.979,45.2,40.127,84.98,85.983,98.098c-24.421,8.478-50.602,13.101-77.815,13.101
				C162.122,493.933,81.191,440.22,41.706,362.328z"/>
			<path d="M246.467,212.333h17.067c9.387,0,17.067-7.68,17.067-17.067V178.2c0-9.387-7.68-17.067-17.067-17.067h-17.067
				c-9.387,0-17.067,7.68-17.067,17.067v17.067C229.4,204.653,237.08,212.333,246.467,212.333z M246.467,178.2h17.067v17.067
				h-17.067V178.2z"/>
			<path d="M246.467,348.867h17.067c9.387,0,17.067-7.68,17.067-17.067v-17.067c0-9.387-7.68-17.067-17.067-17.067h-17.067
				c-9.387,0-17.067,7.68-17.067,17.067V331.8C229.4,341.187,237.08,348.867,246.467,348.867z M246.467,314.733h17.067V331.8
				h-17.067V314.733z"/>
			<path d="M314.733,280.6H331.8c9.387,0,17.067-7.68,17.067-17.067v-17.067c0-9.387-7.68-17.067-17.067-17.067h-17.067
				c-9.387,0-17.067,7.68-17.067,17.067v17.067C297.667,272.92,305.347,280.6,314.733,280.6z M314.733,246.467H331.8v17.067h-17.067
				V246.467z"/>
			<path d="M161.133,246.467v17.067c0,9.387,7.68,17.067,17.067,17.067h17.067c9.387,0,17.067-7.68,17.067-17.067v-17.067
				c0-9.387-7.68-17.067-17.067-17.067H178.2C168.813,229.4,161.133,237.08,161.133,246.467z M178.2,246.467h17.067v17.067H178.2
				V246.467z"/>
		</g>
	</g>
</g>
<g>
</g>
<g>
</g>
<g>
</g>
<g>
</g>
<g>
</g>
<g>
</g>
<g>
</g>
<g>
</g>
<g>
</g>
<g>
</g>
<g>
</g>
<g>
</g>
<g>
</g>
<g>
</g>
<g>
</g>
</svg>
