<?xml version="1.0" encoding="iso-8859-1"?>
<!-- Generator: Adobe Illustrator 19.0.0, SVG Export Plug-In . SVG Version: 6.00 Build 0)  -->
<svg version="1.1" id="Layer_1" xmlns="http://www.w3.org/2000/svg" xmlns:xlink="http://www.w3.org/1999/xlink" x="0px" y="0px"
	 viewBox="0 0 512 512" style="enable-background:new 0 0 512 512;" xml:space="preserve">
<g transform="translate(1 1)">
	<g>
		<g>
			<path d="M111.64,115.053c1.707,1.707,4.267,3.413,6.827,3.413h273.067c2.56,0,5.12-1.707,6.827-4.267
				c1.707-1.707,1.707-5.12,0.853-7.68l-25.6-68.267c-0.853-2.56-4.267-5.12-7.68-5.12H144.067c-3.413,0-6.827,2.56-7.68,5.973
				l-25.6,68.267C109.933,109.933,109.933,112.493,111.64,115.053z M150.04,50.2h209.92l18.773,51.2h-248.32L150.04,50.2z"/>
			<path d="M162.84,406.04c11.093-10.24,27.307-16.213,27.307-16.213c3.413-1.707,5.973-5.12,5.12-9.387s-4.267-6.827-8.533-6.827
				h-47.787c-20.48,0-40.107,5.973-55.467,17.92c-16.213,12.8-18.773,25.6-18.773,33.28c0.853,12.8,8.533,23.893,23.893,33.28
				c7.68,5.12,11.947,11.093,12.8,17.067c1.707,11.093-6.827,21.333-6.827,21.333c-1.707,2.56-2.56,6.827-0.853,9.387
				c1.707,3.413,4.267,5.12,7.68,5.12h76.8c1.707,0,3.413-0.853,5.12-2.56c7.68-6.827,11.947-14.507,11.947-23.893
				c0.853-19.627-17.067-40.96-32.427-54.613c-3.413-3.413-5.12-7.68-5.12-12.8C157.72,412.867,159.427,408.6,162.84,406.04z
				 M178.2,485.4c0,3.413-0.853,5.973-3.413,8.533h-58.88c1.707-5.973,3.413-12.8,0.853-19.627
				c-1.707-11.947-8.533-21.333-20.48-29.013c-6.827-5.12-15.36-11.947-15.36-19.627c-0.853-7.68,5.973-14.507,11.947-18.773
				c11.947-9.387,28.16-14.507,45.227-14.507h15.36c-0.853,0.853-2.56,1.707-3.413,2.56c-6.827,5.973-10.24,13.653-10.24,23.04
				s4.267,18.773,11.093,25.6C168.813,459.8,178.2,475.16,178.2,485.4z"/>
			<path d="M393.24,406.04c11.093-10.24,27.307-16.213,27.307-16.213c3.413-1.707,5.973-5.12,5.12-9.387s-4.267-6.827-8.533-6.827
				h-47.787c-20.48,0-40.107,5.973-55.467,17.92c-16.213,12.8-18.773,25.6-18.773,33.28c0.853,12.8,8.533,23.893,23.893,33.28
				c7.68,5.12,11.947,11.093,12.8,17.067c1.707,11.093-6.827,21.333-6.827,21.333c-1.707,2.56-2.56,5.973-0.853,9.387
				c1.707,3.413,4.267,5.12,7.68,5.12h76.8c1.707,0,3.413-0.853,5.12-2.56c7.68-6.827,11.947-14.507,11.947-23.893
				c0.853-19.627-17.067-40.96-32.427-54.613c-3.413-3.413-5.12-7.68-5.12-12.8C388.12,412.867,389.827,408.6,393.24,406.04z
				 M408.6,485.4c0,3.413-0.853,5.973-3.413,8.533h-58.88c1.707-5.973,3.413-12.8,0.853-19.627
				c-1.707-11.947-8.533-21.333-20.48-29.013c-6.827-5.12-15.36-11.947-15.36-19.627c-0.853-7.68,5.973-14.507,11.947-18.773
				c11.947-9.387,28.16-14.507,45.227-14.507h15.36c-0.853,0.853-2.56,1.707-3.413,2.56c-6.827,5.973-10.24,13.653-10.24,23.04
				s4.267,18.773,11.093,25.6C399.213,459.8,408.6,475.16,408.6,485.4z"/>
			<path d="M472.6,67.267h-45.76L399.213,4.12C398.36,0.707,394.947-1,391.533-1H118.467c-3.413,0-6.827,1.707-7.68,5.12
				L83.16,67.267H37.4c-21.333,0-38.4,17.067-38.4,38.4V127c0,5.12,3.413,8.533,8.533,8.533h45.76l-1.019,2.33
				c-0.439,0.351-0.853,0.716-1.221,1.084c-10.15,13.195-16.375,28.806-18.498,45.933c-0.11,0.328-0.207,0.661-0.275,1.001
				c-0.167,2.168-0.299,4.37-0.388,6.603c-0.253,4.83-0.197,9.764,0.179,14.785c0.323,4.69,0.927,9.507,1.916,14.452l4.267,17.92
				c0.188,0.94,0.506,1.791,0.924,2.556l10.169,40.111c0.853,4.267,4.267,6.827,8.533,6.827h26.453V331.8
				c0,14.507,11.093,25.6,25.6,25.6H178.2c14.507,0,25.6-11.093,25.6-25.6v-42.667h110.933V331.8c0,14.507,11.093,25.6,25.6,25.6
				H408.6c14.507,0,25.6-11.093,25.6-25.6v-42.667h16.213c4.267,0,7.68-2.56,8.533-6.827l10.897-42.983
				c0.066-0.178,0.135-0.352,0.196-0.537l0.928-3.896l3.339-13.17c6.566-27.904,1.285-56.594-15.069-80.003
				c-0.081-0.365-0.177-0.722-0.291-1.063l-2.24-5.12h45.76c5.12,0,8.533-3.413,8.533-8.533v-21.333
				C511,84.333,493.933,67.267,472.6,67.267z M124.44,16.067h261.12l52.053,119.467H71.533l1.515-3.42
				c0.374-0.515,0.73-1.068,1.045-1.7l13.313-30.722L124.44,16.067z M60.44,118.467H16.067v-12.8
				c0-11.947,9.387-21.333,21.333-21.333h38.293l-3.733,8.531L60.44,118.467z M51.053,218.307
				c-0.872-5.058-1.405-10.038-1.628-14.924c-0.074-2.678-0.078-5.355-0.078-8.033c0.001-0.028,0.003-0.055,0.004-0.083H96.28
				l17.067,34.133H53.871L51.053,218.307z M186.733,331.8c0,5.12-3.413,8.533-8.533,8.533h-68.267c-5.12,0-8.533-3.413-8.533-8.533
				v-42.667h85.333V331.8z M417.133,331.8c0,5.12-3.413,8.533-8.533,8.533h-68.267c-5.12,0-8.533-3.413-8.533-8.533v-42.667h85.333
				V331.8z M425.667,272.067h-102.4h-128h-102.4h-28.16l-6.502-25.6H127c2.56,0,5.973-1.707,7.68-3.413
				c0.853-2.56,1.707-5.973,0-8.533l-25.6-51.2c-1.707-3.413-4.267-5.12-7.68-5.12H51.433c2.052-9.293,5.593-17.919,10.714-25.6h384
				c5.159,7.566,8.929,15.964,11.204,24.747H408.6c-3.413,0-5.973,2.56-7.68,5.12l-25.6,51.2c-1.707,2.56-1.707,5.973,0,8.533
				s5.12,4.267,7.68,4.267h66.987l-6.4,25.6H425.667z M453.827,229.4h-57.173l16.213-34.133h46.08c0,7.68-0.853,15.36-2.56,22.187
				L453.827,229.4z M493.933,118.467H449.56L438.041,92.87l-3.735-8.536H472.6c11.947,0,21.333,9.387,21.333,21.333V118.467z"/>
		</g>
	</g>
</g>
<g>
</g>
<g>
</g>
<g>
</g>
<g>
</g>
<g>
</g>
<g>
</g>
<g>
</g>
<g>
</g>
<g>
</g>
<g>
</g>
<g>
</g>
<g>
</g>
<g>
</g>
<g>
</g>
<g>
</g>
</svg>
