<?xml version="1.0" encoding="iso-8859-1"?>
<!-- Generator: Adobe Illustrator 19.0.0, SVG Export Plug-In . SVG Version: 6.00 Build 0)  -->
<svg version="1.1" id="Layer_1" xmlns="http://www.w3.org/2000/svg" xmlns:xlink="http://www.w3.org/1999/xlink" x="0px" y="0px"
	 viewBox="0 0 512 512" style="enable-background:new 0 0 512 512;" xml:space="preserve">
<g transform="translate(1 1)">
	<g>
		<g>
			<path d="M215.525,410.307l2.56-10.24l5.973,5.973c2.56,3.413,7.68,3.413,11.093,0.853l22.187-17.067
				c3.413-3.413,4.267-8.533,1.707-11.947c-6.528-9.429-10.578-21.953-11.65-37.547h8.237c5.12,0,8.533-3.413,8.533-8.533v-25.6
				h34.133c5.12,0,8.533-3.413,8.533-8.533V58.733c0-5.12-3.413-8.533-8.533-8.533h-42.667V7.533c0-5.12-3.413-8.533-8.533-8.533
				h-34.133c-5.12,0-8.533,3.413-8.533,8.533V50.2h-17.067V7.533c0-5.12-3.413-8.533-8.533-8.533h-34.133
				c-5.12,0-8.533,3.413-8.533,8.533V50.2h-8.533c-5.12,0-8.533,3.413-8.533,8.533v238.933c0,5.12,3.413,8.533,8.533,8.533h34.133
				v25.6c0,5.12,3.413,8.533,8.533,8.533h8.717c1.121,28.699,8.012,53.102,22.003,72.533c0.853,2.56,4.267,4.267,6.827,4.267h0.853
				C212.111,416.28,214.671,413.72,215.525,410.307z M221.498,16.067h17.067V50.2h-17.067V16.067z M153.231,16.067h17.067V50.2
				h-17.067V16.067z M136.165,212.333h25.6c5.12,0,8.533-3.413,8.533-8.533v-17.067h8.533c5.12,0,8.533-3.413,8.533-8.533
				s-3.413-8.533-8.533-8.533h-17.067c-5.12,0-8.533,3.413-8.533,8.533v17.067h-17.067v-128h8.533h34.133h34.133h34.133h42.667
				v221.867h-34.133h-85.333h-34.133V212.333z M247.098,306.2v17.067h-8.533h-51.2h-8.533V306.2H247.098z M211.258,375.32
				c-3.413,0.853-5.12,2.56-5.973,5.973V383c-5.12-12.8-7.68-27.307-8.533-42.667h34.133c0.853,16.213,4.267,29.867,10.24,40.96
				l-10.24,7.68l-11.947-11.947c-1.707-1.707-3.413-2.56-5.973-2.56C212.111,374.467,211.258,374.467,211.258,375.32z"/>
			<path d="M390.458,502.467V485.4c0-11.093-2.56-38.4-24.747-60.587s-49.493-24.747-60.587-24.747h-1.707c-0.853,0-23.04,0-23.04,0
				c-2.56,0-5.12,0.853-6.827,3.413l-14.507,22.187h-29.013c-3.413,0-6.827,2.56-7.68,5.973c-1.707,3.413,0,6.827,2.56,9.387
				c33.28,26.453,69.12,28.16,81.92,27.307c1.707,0,7.68,0.853,11.947,5.12c5.12,5.12,5.12,11.093,5.12,11.947v17.067
				c0,5.12,3.413,8.533,8.533,8.533h51.2C388.751,511,392.165,507.587,390.458,502.467z M375.098,493.933h-33.28V485.4
				c0-3.413-0.853-14.507-10.24-23.893c-8.533-8.533-18.773-10.24-23.893-10.24c-8.533,0.853-26.453,0-46.08-8.533h2.56
				c2.56,0,5.12-1.707,6.827-3.413l14.507-22.187c19.627,0,19.627,0,19.627,0h1.707c8.533,0,29.867,1.707,48.64,19.627
				c17.92,18.773,19.627,40.107,19.627,48.64V493.933z"/>
			<path d="M181.391,445.293l-17.067,17.067c-3.413,3.413-3.413,8.533,0,11.947c1.707,1.707,3.413,2.56,5.973,2.56
				s4.267-0.853,5.973-2.56l17.067-17.067c3.413-3.413,3.413-8.533,0-11.947C189.925,441.88,184.805,441.88,181.391,445.293z"/>
			<path d="M221.498,468.333c-5.12,0-8.533,3.413-8.533,8.533v25.6c0,5.12,3.413,8.533,8.533,8.533c5.12,0,8.533-3.413,8.533-8.533
				v-25.6C230.031,471.747,226.618,468.333,221.498,468.333z"/>
			<path d="M178.831,417.133c0-5.12-3.413-8.533-8.533-8.533h-25.6c-5.12,0-8.533,3.413-8.533,8.533s3.413,8.533,8.533,8.533h25.6
				C175.418,425.667,178.831,422.253,178.831,417.133z"/>
		</g>
	</g>
</g>
<g>
</g>
<g>
</g>
<g>
</g>
<g>
</g>
<g>
</g>
<g>
</g>
<g>
</g>
<g>
</g>
<g>
</g>
<g>
</g>
<g>
</g>
<g>
</g>
<g>
</g>
<g>
</g>
<g>
</g>
</svg>
