<?xml version="1.0" encoding="iso-8859-1"?>
<!-- Generator: Adobe Illustrator 19.0.0, SVG Export Plug-In . SVG Version: 6.00 Build 0)  -->
<svg version="1.1" id="Layer_1" xmlns="http://www.w3.org/2000/svg" xmlns:xlink="http://www.w3.org/1999/xlink" x="0px" y="0px"
	 viewBox="0 0 504.446 504.446" style="enable-background:new 0 0 504.446 504.446;" xml:space="preserve">
<g transform="translate(1 1)">
	<g>
		<g>
			<path d="M251.643,74.961h-0.839c-82.256,0-159.475,28.538-206.479,74.702C14.948,179.879-1,214.292-1,251.223
				c0,96.525,113.311,176.262,252.643,176.262c3.357,0,7.554-2.518,8.393-5.875c33.574-111.633,33.574-229.141,0-340.774
				C258.357,77.479,255,74.961,251.643,74.961z M245.767,411.538c-127.58-2.518-229.98-73.023-229.98-159.475
				c0-31.895,14.269-62.951,41.128-89.81c42.807-43.646,113.311-69.666,188.852-70.505
				C275.984,196.666,275.984,306.62,245.767,411.538z"/>
			<path d="M503.446,251.223c0-5.036-3.357-8.393-8.393-8.393H384.478c0.68-12.198,3.021-25.627,8.175-39.449
				c3.63-9.727,6.027-19.001,7.508-27.698h94.892c5.036,0,8.393-3.357,8.393-8.393c0-5.036-3.357-8.393-8.393-8.393H402
				c1.578-32.27-8.751-53.365-9.347-54.557c-1.679-3.357-6.715-5.036-10.911-3.357c-3.357,1.679-5.036,6.715-3.357,10.911
				c0.6,0,9.331,18.427,7.848,47.003h-75.834c-5.036,0-8.393,3.357-8.393,8.393c0,5.036,3.357,8.393,8.393,8.393h73.858
				c-1.266,6.902-3.158,14.202-5.871,21.823c-5.792,15.927-8.319,31.366-8.965,45.325h-59.022c-5.036,0-8.393,3.357-8.393,8.393
				s3.357,8.393,8.393,8.393h59.104c1.436,25.771,8.386,43.493,8.883,44.485c0,0.365,3.488,8.978,5.916,22.662h-73.903
				c-5.036,0-8.393,3.357-8.393,8.393s3.357,8.393,8.393,8.393h75.912c0.99,15.891-0.404,35.226-7.925,55.397
				c-1.679,4.197,0.839,9.233,5.036,10.911c0.839,0.839,1.679,0.839,2.518,0.839c3.357,0,6.715-2.518,6.715-5.875
				c8.442-22.287,10.225-43.62,9.288-61.272h93.112c5.036,0,8.393-3.357,8.393-8.393s-3.357-8.393-8.393-8.393h-94.882
				c-2.675-16.895-7.133-27.766-7.518-28.538c-0.491-0.491-6.734-15.946-8.122-38.61h110.522
				C500.088,259.616,503.446,256.259,503.446,251.223z"/>
		</g>
	</g>
</g>
<g>
</g>
<g>
</g>
<g>
</g>
<g>
</g>
<g>
</g>
<g>
</g>
<g>
</g>
<g>
</g>
<g>
</g>
<g>
</g>
<g>
</g>
<g>
</g>
<g>
</g>
<g>
</g>
<g>
</g>
</svg>
