<?xml version="1.0" encoding="iso-8859-1"?>
<!-- Generator: Adobe Illustrator 19.0.0, SVG Export Plug-In . SVG Version: 6.00 Build 0)  -->
<svg version="1.1" id="Layer_1" xmlns="http://www.w3.org/2000/svg" xmlns:xlink="http://www.w3.org/1999/xlink" x="0px" y="0px"
	 viewBox="0 0 511.474 511.474" style="enable-background:new 0 0 511.474 511.474;" xml:space="preserve">
<g transform="translate(1 1)">
	<g>
		<path d="M504.337,103.484l-88.747-25.6c-104.107-25.6-215.893-25.6-321.707,0L5.137,102.63c-4.267,0.853-6.827,5.12-5.973,9.387
			l51.2,280.747c0.853,2.56,1.707,5.12,4.267,5.973c2.56,0.853,5.12,0.853,7.68,0c39.796-13.982,80.694-23.554,121.892-28.725
			c7.53,36.254-2.999,64.292-4.132,67.125c-2.56,3.413-2.56,7.68,0,10.24c1.707,2.56,4.267,3.413,6.827,3.413
			c1.707,0,3.413-0.853,5.12-2.56c5.12-3.413,9.387-23.04,11.093-34.987c1.525-12.579,1.676-28.058-1.729-45.134
			c28.121-2.689,56.329-3.327,84.371-1.925c9.135,38.094-2.109,68.021-3.282,70.952c-2.56,3.413-2.56,7.68,0,10.24
			c1.707,2.56,4.267,3.413,6.827,3.413c1.707,0,3.413-0.853,5.12-2.56c5.12-3.413,9.387-23.04,11.093-34.987
			c1.547-12.763,1.679-28.512-1.883-45.885c29.411,2.391,58.579,7.041,87.209,13.959c3.562,30.647-4.953,53.289-5.965,55.819
			c-2.56,3.413-2.56,7.68,0,10.24c1.707,2.56,4.267,3.413,6.827,3.413c1.707,0,3.413-0.853,5.12-2.56
			c5.12-3.413,9.387-23.04,11.093-34.987c0.974-8.038,1.388-17.262,0.674-27.327c13.576,3.757,27.016,8.029,40.286,12.821
			c0.853,0.853,1.707,0.853,2.56,0.853c1.707,0,2.56,0,3.413,0c2.56-1.707,3.413-3.413,4.267-5.973l51.2-280.747
			C511.164,108.604,508.604,104.337,504.337,103.484z M444.604,379.964c-12.674-4.343-25.478-8.227-38.385-11.668
			c-4.198-21.197-13.881-44.869-33.295-68.545c-16.966-20.476-21.898-42.151-23.323-53.76h25.029c3.413,0,5.973-1.707,6.827-4.267
			c1.707-2.56,1.707-5.973,0-8.533l-34.133-59.733c-2.56-5.12-11.093-5.12-14.507,0l-34.133,59.733c-1.707,2.56-1.707,5.973,0,8.533
			s4.267,4.267,7.68,4.267h26.079c1.398,13.209,6.816,39.693,27.681,64.853c14.731,18.033,23.035,36.14,27.39,52.794
			c-29.137-6.738-58.735-11.208-88.517-13.416c-5.469-16.198-14.42-33.334-28.473-50.472c-16.966-20.476-21.898-42.151-23.323-53.76
			h25.03c3.413,0,5.973-1.707,6.827-4.267c1.707-2.56,1.707-5.973,0-8.533l-34.133-59.733c-2.56-5.12-11.093-5.12-14.507,0
			l-34.133,59.733c-1.707,2.56-1.707,5.973,0,8.533s4.267,4.267,7.68,4.267h26.079c1.398,13.209,6.816,39.693,27.681,64.853
			c10.549,12.914,17.794,25.864,22.662,38.293c-27.757-1.176-55.621-0.39-83.369,2.353c-5.426-16.57-14.473-34.154-28.893-51.74
			c-16.966-20.476-21.898-42.151-23.323-53.76h25.03c3.413,0,5.973-1.707,6.827-4.267c1.707-2.56,1.707-5.973,0-8.533
			l-34.133-59.733c-2.56-5.12-11.093-5.12-14.507,0L93.884,233.19c-1.707,2.56-1.707,5.973,0,8.533s4.267,4.267,7.68,4.267h26.079
			c1.398,13.209,6.816,39.693,27.681,64.853c11.782,14.423,19.447,28.892,24.275,42.629c-38.771,4.991-77.22,13.816-114.728,26.491
			L17.083,117.137l81.067-23.04c103.253-24.747,211.627-24.747,313.173,0l81.067,23.04L444.604,379.964z M320.87,228.924
			l19.627-34.133l19.627,34.133H320.87z M218.47,228.924l19.627-34.133l19.627,34.133H218.47z M116.07,228.924l19.627-34.133
			l19.627,34.133H116.07z"/>
	</g>
</g>
<g>
</g>
<g>
</g>
<g>
</g>
<g>
</g>
<g>
</g>
<g>
</g>
<g>
</g>
<g>
</g>
<g>
</g>
<g>
</g>
<g>
</g>
<g>
</g>
<g>
</g>
<g>
</g>
<g>
</g>
</svg>
