<?xml version="1.0" encoding="iso-8859-1"?>
<!-- Generator: Adobe Illustrator 19.0.0, SVG Export Plug-In . SVG Version: 6.00 Build 0)  -->
<svg version="1.1" id="Layer_1" xmlns="http://www.w3.org/2000/svg" xmlns:xlink="http://www.w3.org/1999/xlink" x="0px" y="0px"
	 viewBox="0 0 512 512" style="enable-background:new 0 0 512 512;" xml:space="preserve">
<g transform="translate(1 1)">
	<g>
		<path d="M502.467,67.267H7.533C2.413,67.267-1,70.68-1,75.8v290.133c0,5.12,3.413,8.533,8.533,8.533h195.535
			c3.204,30.031-5.096,52.116-6.095,54.613c-2.56,3.413-2.56,7.68,0,10.24c1.707,2.56,4.267,3.413,6.827,3.413
			c1.707,0,3.413-0.853,5.12-2.56c5.12-3.413,9.387-23.04,11.093-34.987c1.083-8.933,1.473-19.33,0.392-30.72h85.063
			c3.204,30.031-5.096,52.116-6.095,54.613c-2.56,3.413-2.56,7.68,0,10.24c1.707,2.56,4.267,3.413,6.827,3.413
			c1.707,0,3.413-0.853,5.12-2.56c5.12-3.413,9.387-23.04,11.093-34.987c1.083-8.933,1.473-19.33,0.392-30.72h85.063
			c3.204,30.031-5.096,52.116-6.095,54.613c-2.56,3.413-2.56,7.68,0,10.24c1.707,2.56,4.267,3.413,6.827,3.413
			c1.707,0,3.413-0.853,5.12-2.56c5.12-3.413,9.387-23.04,11.093-34.987c1.083-8.933,1.473-19.33,0.392-30.72h77.262
			c5.12,0,8.533-3.413,8.533-8.533V75.8C511,70.68,507.587,67.267,502.467,67.267z M217.737,357.4
			c-1.216-5.543-2.825-11.249-4.876-17.067h84.132c2.32,5.82,4.118,11.528,5.48,17.067H217.737z M132.973,220.867l19.627-34.133
			l19.627,34.133H132.973z M186.733,237.933c3.413,0,5.973-1.707,6.827-4.267c1.707-2.56,1.707-5.973,0-8.533L159.427,165.4
			c-2.56-5.12-11.093-5.12-14.507,0l-34.133,59.733c-1.707,2.56-1.707,5.973,0,8.533s4.267,4.267,7.68,4.267H144.4
			c1.198,13.209,6.348,39.693,27.826,64.853c5.591,6.844,10.248,13.698,14.123,20.48H50.2v-204.8h409.6v204.8h-49.37
			c-5.174-10.376-11.913-20.975-20.604-31.573c-16.966-20.476-21.898-42.151-23.323-53.76h25.029c3.413,0,5.973-1.707,6.827-4.267
			c1.707-2.56,1.707-5.973,0-8.533L364.227,165.4c-2.56-5.12-11.093-5.12-14.507,0l-34.133,59.733c-1.707,2.56-1.707,5.973,0,8.533
			s4.267,4.267,7.68,4.267H349.2c1.198,13.209,6.348,39.693,27.826,64.853c5.591,6.844,10.248,13.698,14.123,20.48H308.03
			c-5.174-10.376-11.913-20.975-20.604-31.573c-16.966-20.476-21.898-42.151-23.323-53.76h25.03c3.413,0,5.973-1.707,6.827-4.267
			c1.707-2.56,1.707-5.973,0-8.533L261.827,165.4c-2.56-5.12-11.093-5.12-14.507,0l-34.133,59.733c-1.707,2.56-1.707,5.973,0,8.533
			c1.707,2.56,4.267,4.267,7.68,4.267H246.8c1.198,13.209,6.348,39.693,27.826,64.853c5.591,6.844,10.248,13.698,14.123,20.48
			H205.63c-5.174-10.376-11.913-20.975-20.604-31.573c-16.966-20.476-21.898-42.151-23.323-53.76H186.733z M337.773,220.867
			l19.627-34.133l19.627,34.133H337.773z M235.373,220.867L255,186.733l19.627,34.133H235.373z M320.137,357.4
			c-1.216-5.543-2.825-11.249-4.876-17.067h84.132c2.32,5.82,4.118,11.528,5.48,17.067H320.137z M493.933,357.4h-71.396
			c-1.216-5.543-2.825-11.249-4.876-17.067h50.672c5.12,0,8.533-3.413,8.533-8.533V109.933c0-5.12-3.413-8.533-8.533-8.533H41.667
			c-5.12,0-8.533,3.413-8.533,8.533V331.8c0,5.12,3.413,8.533,8.533,8.533h152.927c2.32,5.82,4.118,11.528,5.48,17.067H16.067
			V84.333h477.867V357.4z"/>
	</g>
</g>
<g>
</g>
<g>
</g>
<g>
</g>
<g>
</g>
<g>
</g>
<g>
</g>
<g>
</g>
<g>
</g>
<g>
</g>
<g>
</g>
<g>
</g>
<g>
</g>
<g>
</g>
<g>
</g>
<g>
</g>
</svg>
