<?xml version="1.0" encoding="iso-8859-1"?>
<!-- Generator: Adobe Illustrator 19.0.0, SVG Export Plug-In . SVG Version: 6.00 Build 0)  -->
<svg version="1.1" id="Layer_1" xmlns="http://www.w3.org/2000/svg" xmlns:xlink="http://www.w3.org/1999/xlink" x="0px" y="0px"
	 viewBox="0 0 511.573 511.573" style="enable-background:new 0 0 511.573 511.573;" xml:space="preserve">
<g transform="translate(1 1)">
	<g>
		<g>
			<path d="M228.76,156.653c-5.12,0-8.533,3.413-8.533,8.533v179.2c0,5.12,3.413,8.533,8.533,8.533s8.533-3.413,8.533-8.533v-179.2
				C237.293,160.067,233.88,156.653,228.76,156.653z"/>
			<path d="M279.96,156.653c-5.12,0-8.533,3.413-8.533,8.533v179.2c0,5.12,3.413,8.533,8.533,8.533s8.533-3.413,8.533-8.533v-179.2
				C288.493,160.067,285.08,156.653,279.96,156.653z"/>
			<path d="M508.653,253.933l-85.333-102.4c-2.56-2.56-5.973-3.413-9.387-2.56s-5.973,4.267-5.973,7.68v51.2h-85.333
				c-5.12,0-8.533,3.413-8.533,8.533v76.8c0,5.12,3.413,8.533,8.533,8.533h85.333v51.2c0,3.413,2.56,6.827,5.12,7.68
				c1.707,0.853,2.56,0.853,3.413,0.853c2.56,0,4.267-0.853,6.827-2.56l85.333-93.867
				C511.213,261.613,511.213,257.347,508.653,253.933z M425.027,330.733v-37.547c0-5.12-3.413-8.533-8.533-8.533H331.16V224.92
				h85.333c5.12,0,8.533-3.413,8.533-8.533v-35.84l65.707,78.507L425.027,330.733z"/>
			<path d="M186.093,207.853H100.76v-51.2c0-3.413-2.56-6.827-5.973-7.68c-3.413-1.707-6.827-0.853-8.533,2.56L0.92,253.933
				c-2.56,3.413-2.56,7.68,0,11.093l85.333,93.867c1.707,1.707,3.413,2.56,5.973,2.56c0.853,0,1.707,0,3.413-0.853
				c2.56-0.853,5.12-4.267,5.12-7.68v-51.2h85.333c5.12,0,8.533-3.413,8.533-8.533v-76.8
				C194.627,211.267,191.213,207.853,186.093,207.853z M177.56,284.653H92.227c-5.12,0-8.533,3.413-8.533,8.533v37.547
				l-65.707-71.68l65.707-78.507v35.84c0,5.12,3.413,8.533,8.533,8.533h85.333V284.653z"/>
		</g>
	</g>
</g>
<g>
</g>
<g>
</g>
<g>
</g>
<g>
</g>
<g>
</g>
<g>
</g>
<g>
</g>
<g>
</g>
<g>
</g>
<g>
</g>
<g>
</g>
<g>
</g>
<g>
</g>
<g>
</g>
<g>
</g>
</svg>
