<?xml version="1.0" encoding="iso-8859-1"?>
<!-- Generator: Adobe Illustrator 19.0.0, SVG Export Plug-In . SVG Version: 6.00 Build 0)  -->
<svg version="1.1" id="Layer_1" xmlns="http://www.w3.org/2000/svg" xmlns:xlink="http://www.w3.org/1999/xlink" x="0px" y="0px"
	 viewBox="0 0 512 512" style="enable-background:new 0 0 512 512;" xml:space="preserve">
<g transform="translate(1 1)">
	<g>
		<g>
			<path d="M340.333,117.098V7.533c0-5.12-3.413-8.533-8.533-8.533H178.2c-5.12,0-8.533,3.413-8.533,8.533v109.564
				c-46.108,28.576-76.8,79.624-76.8,137.902c0,89.6,72.533,162.133,162.133,162.133S417.133,344.6,417.133,255
				C417.133,196.722,386.442,145.673,340.333,117.098z M186.733,16.067h136.533v91.822C302.521,98.254,279.396,92.867,255,92.867
				s-47.521,5.387-68.267,15.022V16.067z M255,400.067c-80.213,0-145.067-64.853-145.067-145.067
				c0-52.913,28.225-99.137,70.46-124.476c0.727-0.213,1.428-0.534,2.074-0.964c44.373-25.6,100.693-25.6,145.067,0
				c0.539,0.269,0.989,0.447,1.411,0.573c42.601,25.251,71.122,71.678,71.122,124.867C400.067,335.213,335.213,400.067,255,400.067z
				"/>
			<path d="M75.8,255c0-5.12-3.413-8.533-8.533-8.533H7.533C2.413,246.467-1,249.88-1,255s3.413,8.533,8.533,8.533h59.733
				C72.387,263.533,75.8,260.12,75.8,255z"/>
			<path d="M502.467,246.467h-59.733c-5.12,0-8.533,3.413-8.533,8.533s3.413,8.533,8.533,8.533h59.733
				c5.12,0,8.533-3.413,8.533-8.533S507.587,246.467,502.467,246.467z"/>
			<path d="M255,434.2c-5.12,0-8.533,3.413-8.533,8.533v59.733c0,5.12,3.413,8.533,8.533,8.533s8.533-3.413,8.533-8.533v-59.733
				C263.533,437.613,260.12,434.2,255,434.2z"/>
			<path d="M112.493,385.56l-42.667,42.667c-3.413,3.413-3.413,8.533,0,11.947c1.707,1.707,3.413,2.56,5.973,2.56
				s4.267-0.853,5.973-2.56l42.667-42.667c3.413-3.413,3.413-8.533,0-11.947C121.027,382.147,115.907,382.147,112.493,385.56z"/>
			<path d="M391.533,127c2.56,0,4.267-0.853,5.973-2.56l42.667-42.667c3.413-3.413,3.413-8.533,0-11.947
				c-3.413-3.413-8.533-3.413-11.947,0l-42.667,42.667c-3.413,3.413-3.413,8.533,0,11.947C387.267,126.147,388.973,127,391.533,127z
				"/>
			<path d="M397.507,385.56c-3.413-3.413-8.533-3.413-11.947,0c-3.413,3.413-3.413,8.533,0,11.947l42.667,42.667
				c1.707,1.707,3.413,2.56,5.973,2.56s4.267-0.853,5.973-2.56c3.413-3.413,3.413-8.533,0-11.947L397.507,385.56z"/>
			<path d="M112.493,124.44c1.707,1.707,3.413,2.56,5.973,2.56s4.267-0.853,5.973-2.56c3.413-3.413,3.413-8.533,0-11.947
				L81.773,69.827c-3.413-3.413-8.533-3.413-11.947,0s-3.413,8.533,0,11.947L112.493,124.44z"/>
			<path d="M255,152.6c-5.12,0-8.533,3.413-8.533,8.533v128c0,5.12,3.413,8.533,8.533,8.533s8.533-3.413,8.533-8.533v-128
				C263.533,156.013,260.12,152.6,255,152.6z"/>
			<path d="M255,323.267c-5.12,0-8.533,3.413-8.533,8.533c0,5.12,3.413,8.533,8.533,8.533s8.533-3.413,8.533-8.533
				C263.533,326.68,260.12,323.267,255,323.267z"/>
		</g>
	</g>
</g>
<g>
</g>
<g>
</g>
<g>
</g>
<g>
</g>
<g>
</g>
<g>
</g>
<g>
</g>
<g>
</g>
<g>
</g>
<g>
</g>
<g>
</g>
<g>
</g>
<g>
</g>
<g>
</g>
<g>
</g>
</svg>
