<?xml version="1.0" encoding="iso-8859-1"?>
<!-- Generator: Adobe Illustrator 19.0.0, SVG Export Plug-In . SVG Version: 6.00 Build 0)  -->
<svg version="1.1" id="Layer_1" xmlns="http://www.w3.org/2000/svg" xmlns:xlink="http://www.w3.org/1999/xlink" x="0px" y="0px"
	 viewBox="0 0 512.67 512.67" style="enable-background:new 0 0 512.67 512.67;" xml:space="preserve">
<g transform="translate(1 1)">
	<g>
		<g>
			<path d="M459.616,189.628l11.947,11.947c3.413,3.413,8.533,3.413,11.947,0s3.413-8.533,0-11.947l-17.067-17.067
				c-3.413-2.56-7.68-3.413-11.093-0.853l-25.6,17.067l-130.56,81.067l-37.547-45.227c-1.707-2.56-4.267-3.413-6.827-3.413h-85.333
				v-25.6h17.067c5.12,0,8.533-3.413,8.533-8.533s-3.413-8.533-8.533-8.533h-51.2c-5.12,0-8.533,3.413-8.533,8.533
				s3.413,8.533,8.533,8.533h17.067v25.6H84.15v-25.6c0-2.56-1.707-5.12-3.413-6.827l-51.2-34.133
				c-2.56-1.707-5.12-1.707-7.68-1.707c-2.56,0.853-4.267,2.56-5.12,5.12L-0.33,200.721c-1.707,3.413,0,7.68,3.413,10.24l64,40
				v98.24c0,5.12,3.413,8.533,8.533,8.533h256c2.56,0,5.12-1.707,6.827-2.56L440.493,202.1L459.616,189.628z M17.59,200.721
				l11.093-26.453l38.4,25.6v29.867v1.707L17.59,200.721z M327.35,340.668H84.15v-93.867v-8.533h166.4l40.107,47.787
				c2.56,3.413,7.68,4.267,11.093,1.707l103.253-64L327.35,340.668z"/>
			<path d="M507.403,299.708l-2.56-4.267c-4.267-5.973-7.68-11.093-10.24-17.067l-9.387-17.92c-3.413-5.973-12.8-5.973-15.36,0
				l-7.68,14.507c-3.413,7.68-7.68,15.36-12.8,22.187c-3.413,4.267-5.973,9.387-5.973,15.36
				c-1.707,17.067,10.24,32.427,26.453,35.84c1.707,0.853,4.267,0.853,6.827,0.853c7.68,0,15.36-2.56,22.187-7.68
				c8.533-6.827,12.8-16.213,12.8-26.453C511.67,309.095,509.963,303.975,507.403,299.708z M487.776,327.868
				c-4.267,3.413-9.387,4.267-14.507,3.413c-8.533-1.707-14.507-9.387-13.653-17.92c0-2.56,0.853-4.267,2.56-5.973
				c5.973-7.68,10.24-16.213,14.507-24.747l1.707,2.56c3.413,6.827,7.68,12.8,11.093,18.773l2.56,4.267
				c0.853,1.707,1.707,3.413,1.707,5.973C493.75,320.188,492.043,324.455,487.776,327.868z"/>
		</g>
	</g>
</g>
<g>
</g>
<g>
</g>
<g>
</g>
<g>
</g>
<g>
</g>
<g>
</g>
<g>
</g>
<g>
</g>
<g>
</g>
<g>
</g>
<g>
</g>
<g>
</g>
<g>
</g>
<g>
</g>
<g>
</g>
</svg>
