<?xml version="1.0" encoding="iso-8859-1"?>
<!-- Generator: Adobe Illustrator 19.0.0, SVG Export Plug-In . SVG Version: 6.00 Build 0)  -->
<svg version="1.1" id="Layer_1" xmlns="http://www.w3.org/2000/svg" xmlns:xlink="http://www.w3.org/1999/xlink" x="0px" y="0px"
	 viewBox="0 0 512 512" style="enable-background:new 0 0 512 512;" xml:space="preserve">
<g transform="translate(1 1)">
	<g>
		<g>
			<path d="M383,203.8c0-5.12-3.413-8.533-8.533-8.533s-8.533,3.413-8.533,8.533c0,89.6-72.533,162.133-162.133,162.133
				c-5.12,0-8.533,3.413-8.533,8.533S198.68,383,203.8,383C302.787,383,383,302.787,383,203.8z"/>
			<path d="M203.8,323.267c-5.12,0-8.533,3.413-8.533,8.533c0,5.12,3.413,8.533,8.533,8.533c75.093,0,136.533-61.44,136.533-136.533
				c0-5.12-3.413-8.533-8.533-8.533c-5.12,0-8.533,3.413-8.533,8.533C323.267,269.507,269.507,323.267,203.8,323.267z"/>
			<path d="M203.8,280.6c-5.12,0-8.533,3.413-8.533,8.533s3.413,8.533,8.533,8.533c52.053,0,93.867-41.813,93.867-93.867
				c0-5.12-3.413-8.533-8.533-8.533s-8.533,3.413-8.533,8.533C280.6,246.467,246.467,280.6,203.8,280.6z"/>
			<path d="M502.467,493.933h-11.464L424.813,303.64c-0.853-3.413-4.267-5.973-7.68-5.973c-3.413,0-6.827,2.56-7.68,5.973
				l-66.189,190.293H331.8c-5.12,0-8.533,3.413-8.533,8.533S326.68,511,331.8,511h17.067H485.4h17.067
				c5.12,0,8.533-3.413,8.533-8.533S507.587,493.933,502.467,493.933z M360.813,493.933l56.32-162.133l56.32,162.133H360.813z"/>
			<path d="M272.067,135.533C272.067,60.44,210.627-1,135.533-1h-128C2.413-1-1,2.413-1,7.533v494.933
				c0,5.12,3.413,8.533,8.533,8.533h51.2c5.12,0,8.533-3.413,8.533-8.533v-230.4h68.267
				C210.627,272.067,272.067,210.627,272.067,135.533z M135.533,255h-76.8c-5.12,0-8.533,3.413-8.533,8.533v230.4H16.067V16.067
				h119.467C201.24,16.067,255,69.827,255,135.533S201.24,255,135.533,255z"/>
			<path d="M135.533,50.2h-76.8c-5.12,0-8.533,3.413-8.533,8.533v153.6c0,5.12,3.413,8.533,8.533,8.533h76.8
				c46.933,0,85.333-38.4,85.333-85.333S182.467,50.2,135.533,50.2z M135.533,203.8H67.267V67.267h68.267
				c37.547,0,68.267,30.72,68.267,68.267C203.8,173.08,173.08,203.8,135.533,203.8z"/>
		</g>
	</g>
</g>
<g>
</g>
<g>
</g>
<g>
</g>
<g>
</g>
<g>
</g>
<g>
</g>
<g>
</g>
<g>
</g>
<g>
</g>
<g>
</g>
<g>
</g>
<g>
</g>
<g>
</g>
<g>
</g>
<g>
</g>
</svg>
