<?xml version="1.0" encoding="iso-8859-1"?>
<!-- Generator: Adobe Illustrator 19.0.0, SVG Export Plug-In . SVG Version: 6.00 Build 0)  -->
<svg version="1.1" id="Layer_1" xmlns="http://www.w3.org/2000/svg" xmlns:xlink="http://www.w3.org/1999/xlink" x="0px" y="0px"
	 viewBox="0 0 512 512" style="enable-background:new 0 0 512 512;" xml:space="preserve">
<g transform="translate(1 1)">
	<g>
		<g>
			<path d="M502.467,280.6c-5.12,0-8.533,3.413-8.533,8.533V306.2h-25.6V161.133c0-23.893-18.773-42.667-42.667-42.667H84.333
				c-20.48,0-37.547,14.507-41.813,34.133H16.067v-17.067c0-5.12-3.413-8.533-8.533-8.533S-1,130.413-1,135.533v25.6v34.133v25.6
				c0,5.12,3.413,8.533,8.533,8.533s8.533-3.413,8.533-8.533V203.8h25.6v145.067c0,23.893,18.773,42.667,42.667,42.667h341.333
				c20.48,0,37.547-14.507,41.813-34.133h26.453v17.067c0,5.12,3.413,8.533,8.533,8.533s8.533-3.413,8.533-8.533v-25.6v-34.133
				v-25.6C511,284.013,507.587,280.6,502.467,280.6z M58.733,348.867v-153.6c0-5.12-3.413-8.533-8.533-8.533H16.067v-17.067H50.2
				c5.12,0,8.533-3.413,8.533-8.533c0-11.093,6.827-20.48,17.067-23.893v235.52C65.56,369.347,58.733,359.96,58.733,348.867z
				 M92.867,135.533h324.267v238.933H92.867V135.533z M459.8,341.187c-5.12,0-8.533,3.413-8.533,8.533
				c0,11.093-6.827,20.48-17.067,23.893V137.24c10.24,3.413,17.067,12.8,17.067,23.893v154.453c0,5.12,3.413,8.533,8.533,8.533
				h34.133v17.067H459.8z"/>
			<path d="M383,161.133H135.533c0-5.12-3.413-8.533-8.533-8.533s-8.533,3.413-8.533,8.533v8.533c0,5.12,3.413,8.533,8.533,8.533
				h247.467c0,5.12,3.413,8.533,8.533,8.533s8.533-3.413,8.533-8.533v-8.533C391.533,164.547,388.12,161.133,383,161.133z"/>
			<path d="M383,331.8H135.533c0-5.12-3.413-8.533-8.533-8.533s-8.533,3.413-8.533,8.533v8.533c0,5.12,3.413,8.533,8.533,8.533
				h247.467c0,5.12,3.413,8.533,8.533,8.533s8.533-3.413,8.533-8.533v-8.533C391.533,335.213,388.12,331.8,383,331.8z"/>
			<path d="M383,289.133H135.533c0-5.12-3.413-8.533-8.533-8.533s-8.533,3.413-8.533,8.533v8.533c0,5.12,3.413,8.533,8.533,8.533
				h247.467c0,5.12,3.413,8.533,8.533,8.533s8.533-3.413,8.533-8.533v-8.533C391.533,292.547,388.12,289.133,383,289.133z"/>
			<path d="M383,246.467H135.533c0-5.12-3.413-8.533-8.533-8.533s-8.533,3.413-8.533,8.533V255c0,5.12,3.413,8.533,8.533,8.533
				h247.467c0,5.12,3.413,8.533,8.533,8.533s8.533-3.413,8.533-8.533V255C391.533,249.88,388.12,246.467,383,246.467z"/>
			<path d="M383,203.8H135.533c0-5.12-3.413-8.533-8.533-8.533s-8.533,3.413-8.533,8.533v8.533c0,5.12,3.413,8.533,8.533,8.533
				h247.467c0,5.12,3.413,8.533,8.533,8.533s8.533-3.413,8.533-8.533v-8.533C391.533,207.213,388.12,203.8,383,203.8z"/>
		</g>
	</g>
</g>
<g>
</g>
<g>
</g>
<g>
</g>
<g>
</g>
<g>
</g>
<g>
</g>
<g>
</g>
<g>
</g>
<g>
</g>
<g>
</g>
<g>
</g>
<g>
</g>
<g>
</g>
<g>
</g>
<g>
</g>
</svg>
