<?xml version="1.0" encoding="iso-8859-1"?>
<!-- Generator: Adobe Illustrator 19.0.0, SVG Export Plug-In . SVG Version: 6.00 Build 0)  -->
<svg version="1.1" id="Layer_1" xmlns="http://www.w3.org/2000/svg" xmlns:xlink="http://www.w3.org/1999/xlink" x="0px" y="0px"
	 viewBox="0 0 512 512" style="enable-background:new 0 0 512 512;" xml:space="preserve">
<g transform="translate(1 1)">
	<g>
		<g>
			<path d="M511,92.867c0-2.56-0.853-4.267-2.56-5.973L423.107,1.56C421.4-0.147,419.693-1,417.133-1s-4.267,0.853-5.973,2.56
				l-84.08,84.88l-6.374-6.374c-7.68-8.533-18.773-12.8-29.867-12.8s-21.333,4.267-29.867,12.8l-16.015,16.015
				c-0.656,0.249-1.294,0.594-1.905,1.052c-3.413,2.56-4.267,7.68-2.56,11.093l11.947,23.893c5.973,11.093,3.413,24.747-5.12,33.28
				l-34.987,34.987c-10.24,9.387-10.24,25.6,0,35.84l60.587,60.587c5.12,5.12,11.093,7.68,17.92,7.68s13.653-2.56,17.067-8.533
				l34.987-34.987c8.533-8.533,22.187-11.093,33.28-5.12l23.893,11.947c0.575,0.23,1.15,0.41,1.721,0.547
				c1.206,0.767,2.536,1.16,4.253,1.16c1.707,0,4.267-0.853,5.12-2.56l17.92-17.92c16.213-17.067,16.213-44.373,0-60.587l-5.52-5.52
				l84.88-84.08C510.147,97.133,511,95.427,511,92.867z M332.653,249.88l-34.987,34.987c-3.413,3.413-8.533,3.413-11.947,0
				l-60.587-60.587c-3.413-3.413-3.413-8.533,0-11.947l34.987-34.987c10.966-10.966,15.247-26.933,12.048-42.135
				c8.504,5.929,17.822,11.416,28.059,16.535c3.2,1.867,6.567,3.983,10.022,6.35c2.073,1.42,4.178,2.93,6.298,4.53
				c5.653,4.267,11.413,9.173,16.96,14.72c4.853,4.48,9.38,9.287,13.366,14.206c0.569,0.703,1.128,1.408,1.674,2.114
				c4.373,5.653,8,11.413,10.56,16.96c0,0,0,0,0,0.001c5.12,10.24,10.24,18.773,16.213,27.306
				C359.96,233.667,343.747,238.787,332.653,249.88z M417.133,236.227l-11.947,11.947c-11.947-12.8-22.187-27.307-31.573-46.08
				c-6.827-11.947-17.067-25.6-29.013-37.547c-11.947-12.8-25.6-23.04-37.547-29.013c-17.92-9.387-33.28-19.627-46.08-31.573
				l12.8-11.947c9.387-9.387,26.453-9.387,35.84,0l107.52,108.373C427.373,209.773,427.373,225.987,417.133,236.227z
				 M412.013,170.52L339.48,97.987l77.653-78.507l73.387,73.387L412.013,170.52z"/>
			<path d="M284.867,189.293c-3.413-3.413-8.533-3.413-11.947,0l-23.893,23.893c-1.707,1.707-2.56,3.413-2.56,5.973
				c0,1.707,0.853,4.267,2.56,5.973l35.84,35.84c1.707,1.707,3.413,2.56,5.973,2.56s5.12-0.853,6.827-2.56l23.04-23.893
				c3.413-3.413,3.413-8.533,0-11.947L284.867,189.293z M290.84,243.053l-23.893-23.893l11.947-11.947l23.893,23.893L290.84,243.053
				z"/>
			<path d="M290.84,339.48L170.52,219.16c-3.413-3.413-8.533-3.413-11.947,0l-84.48,84.48c-3.413,3.413-3.413,8.533,0,11.947
				l11.918,11.918L1.56,411.16c-1.707,1.707-2.56,3.413-2.56,5.973s0.853,4.267,2.56,5.973l85.333,85.333
				c1.707,1.707,3.413,2.56,5.973,2.56c2.56,0,4.267-0.853,5.973-2.56l83.655-84.452l11.918,11.918
				c1.707,1.707,3.413,2.56,5.973,2.56s5.12-0.853,5.973-2.56l84.48-84.48C294.253,348.013,294.253,342.893,290.84,339.48z
				 M92.867,490.52L19.48,417.133l78.507-77.653l72.533,72.533L92.867,490.52z M200.387,417.987l-11.946-11.946c0,0,0,0-0.001-0.001
				l-84.48-84.48c0,0,0,0-0.001-0.001l-11.946-11.946l72.533-72.533L272.92,345.453L200.387,417.987z"/>
			<path d="M127.853,308.76c-3.413,3.413-3.413,8.533,0,11.947l60.587,60.587c1.707,1.707,3.413,2.56,5.973,2.56
				s4.267-0.853,5.973-2.56l35.84-35.84c3.413-3.413,3.413-8.533,0-11.947L175.64,272.92c-3.413-3.413-8.533-3.413-11.947,0
				L127.853,308.76z M170.52,291.693l48.64,48.64l-23.893,23.893l-48.64-48.64L170.52,291.693z"/>
			<path d="M155.16,116.76c1.707,0.853,4.267,1.707,5.973,1.707H203.8c5.12,0,8.533-3.413,8.533-8.533s-3.413-8.533-8.533-8.533
				h-22.187l53.76-53.76c3.413-3.413,3.413-8.533,0-11.947s-8.533-3.413-11.947,0l-53.76,53.76V67.267
				c0-5.12-3.413-8.533-8.533-8.533c-5.12,0-8.533,3.413-8.533,8.533v43.52v0.853c0,1.707,0.853,2.56,1.707,4.267
				C154.307,115.907,154.307,116.76,155.16,116.76z"/>
			<path d="M354.84,393.24c-1.707-0.853-4.267-1.707-5.973-1.707H306.2c-5.12,0-8.533,3.413-8.533,8.533
				c0,5.12,3.413,8.533,8.533,8.533h22.187l-53.76,53.76c-3.413,3.413-3.413,8.533,0,11.947c1.707,1.707,3.413,2.56,5.973,2.56
				s4.267-0.853,5.973-3.413l53.76-53.76v22.187c0,5.12,3.413,8.533,8.533,8.533S357.4,447,357.4,441.88v-42.667v-0.853
				c0-1.707-0.853-2.56-1.707-4.267C355.693,394.093,355.693,393.24,354.84,393.24z"/>
		</g>
	</g>
</g>
<g>
</g>
<g>
</g>
<g>
</g>
<g>
</g>
<g>
</g>
<g>
</g>
<g>
</g>
<g>
</g>
<g>
</g>
<g>
</g>
<g>
</g>
<g>
</g>
<g>
</g>
<g>
</g>
<g>
</g>
</svg>
