<?xml version="1.0" encoding="iso-8859-1"?>
<!-- Generator: Adobe Illustrator 19.0.0, SVG Export Plug-In . SVG Version: 6.00 Build 0)  -->
<svg version="1.1" id="Layer_1" xmlns="http://www.w3.org/2000/svg" xmlns:xlink="http://www.w3.org/1999/xlink" x="0px" y="0px"
	 viewBox="0 0 512 512" style="enable-background:new 0 0 512 512;" xml:space="preserve">
<g transform="translate(1 1)">
	<g>
		<path d="M388.973,240.493l-17.067-17.067c-1.707-1.707-3.413-2.56-5.973-2.56H306.2V84.333c0-17.48-9.952-29.979-25.6-33.268
			V16.067C280.6,6.68,272.92-1,263.533-1h-17.067C237.08-1,229.4,6.68,229.4,16.067v34.999c-15.648,3.289-25.6,15.788-25.6,33.268
			v136.533h-59.733c-2.56,0-4.267,0.853-5.973,2.56l-17.067,17.067c-1.707,1.707-2.56,3.413-2.56,5.973V280.6
			c0,2.56,0.853,4.267,2.56,5.973l17.067,17.067c1.707,1.707,3.413,2.56,5.973,2.56h25.6v25.6c0,5.12,3.413,8.533,8.533,8.533
			h17.067v76.8v61.44c0,17.92,14.507,32.427,32.427,32.427H255c5.12,0,8.533-3.413,8.533-8.533s-3.413-8.533-8.533-8.533h-27.307
			c-8.533,0-15.36-6.827-15.36-15.36v-52.907H229.4v25.6c0,9.387,7.68,17.067,17.067,17.067h17.067
			c9.387,0,17.067-7.68,17.067-17.067v-25.6h25.6c5.12,0,8.533-3.413,8.533-8.533v-76.8H331.8c5.12,0,8.533-3.413,8.533-8.533v-25.6
			h25.6c2.56,0,4.267-0.853,5.973-2.56l17.067-17.067c1.707-1.707,2.56-3.413,2.56-5.973v-34.133
			C391.533,243.907,390.68,242.2,388.973,240.493z M212.333,289.133v-51.2h85.333v51.2H212.333z M246.467,16.067h17.067V50.2
			h-17.067V16.067z M220.867,84.333c0-11.093,5.973-17.067,17.067-17.067h34.133c11.093,0,17.067,5.973,17.067,17.067v136.533
			h-68.267V84.333z M135.533,277.187V249.88l11.947-11.947h47.787v51.2H178.2h-30.72L135.533,277.187z M263.533,451.267h-17.067
			v-25.6h17.067V451.267z M297.667,357.4h-34.133c-5.12,0-8.533,3.413-8.533,8.533s3.413,8.533,8.533,8.533h34.133V408.6h-25.6
			h-34.133h-25.6v-17.067h25.6c5.12,0,8.533-3.413,8.533-8.533s-3.413-8.533-8.533-8.533h-25.6v-34.133h85.333V357.4z
			 M323.267,323.267H306.2H203.8h-17.067V306.2H203.8h102.4h17.067V323.267z M374.467,277.187l-11.947,11.947H331.8h-17.067v-51.2
			h47.787l11.947,11.947V277.187z"/>
	</g>
</g>
<g>
</g>
<g>
</g>
<g>
</g>
<g>
</g>
<g>
</g>
<g>
</g>
<g>
</g>
<g>
</g>
<g>
</g>
<g>
</g>
<g>
</g>
<g>
</g>
<g>
</g>
<g>
</g>
<g>
</g>
</svg>
