<?xml version="1.0" encoding="iso-8859-1"?>
<!-- Generator: Adobe Illustrator 19.0.0, SVG Export Plug-In . SVG Version: 6.00 Build 0)  -->
<svg version="1.1" id="Layer_1" xmlns="http://www.w3.org/2000/svg" xmlns:xlink="http://www.w3.org/1999/xlink" x="0px" y="0px"
	 viewBox="0 0 512 512" style="enable-background:new 0 0 512 512;" xml:space="preserve">
<g transform="translate(1 1)">
	<g>
		<g>
			<path d="M425.667,344.6c-11.093-3.413-23.04-5.12-34.987-5.12H117.613c-11.093,0-23.04,1.707-34.987,5.12
				c-2.56,0.853-5.12,2.56-5.973,5.12c-0.853,2.56-0.853,5.12,0.853,7.68C114.2,420.547,182.467,459.8,255,459.8
				s140.8-39.253,175.787-102.4c1.707-2.56,2.56-5.12,0.853-7.68S428.227,345.453,425.667,344.6z M255,442.733
				c-62.293,0-121.173-31.573-156.16-83.627c6.827-0.853,12.8-1.707,19.627-1.707h273.067c6.827,0,12.8,0.853,19.627,1.707
				C376.173,411.16,317.293,442.733,255,442.733z"/>
			<path d="M83.48,164.547c11.093,3.413,23.04,5.12,34.987,5.12h273.067c11.947,0,23.893-1.707,35.84-4.267
				c2.56-0.853,5.12-2.56,5.973-5.12s0.853-5.12-0.853-7.68C395.8,89.453,327.533,50.2,255,50.2S114.2,89.453,78.36,151.747
				c-1.707,2.56-1.707,5.12-0.853,7.68C79.213,161.987,80.92,163.693,83.48,164.547z M255,67.267
				c62.293,0,121.173,31.573,156.16,83.627c-6.827,0.853-12.8,1.707-19.627,1.707H118.467c-6.827,0-12.8-0.853-19.627-1.707
				C133.827,98.84,192.707,67.267,255,67.267z"/>
			<path d="M255-1C114.2-1-1,114.2-1,255s115.2,256,256,256s256-115.2,256-256S395.8-1,255-1z M255,493.933
				c-131.413,0-238.933-107.52-238.933-238.933S123.587,16.067,255,16.067S493.933,123.587,493.933,255S386.413,493.933,255,493.933
				z"/>
			<path d="M144.067,255c0-30.72-29.867-57.173-75.093-65.707c-4.267-0.853-8.533,1.707-9.387,5.973
				C53.613,214.893,50.2,234.52,50.2,255c0,20.48,3.413,40.107,8.533,59.733c1.707,3.413,5.12,5.973,8.533,5.973
				c0.853,0,0.853,0,1.707,0C114.2,313.027,144.067,285.72,144.067,255z M73.24,302.787c-4.267-16.213-5.973-31.573-5.973-47.787
				s1.707-31.573,5.973-47.787C105.667,215.747,127,234.52,127,255C127,276.333,104.813,295.107,73.24,302.787z"/>
			<path d="M450.413,195.267c-0.853-4.267-5.12-6.827-9.387-5.973c-45.227,7.68-75.093,34.987-75.093,65.707
				s29.867,57.173,75.093,65.707c0.853,0,0.853,0,1.707,0c3.413,0,6.827-1.707,7.68-5.973C456.387,295.96,459.8,275.48,459.8,255
				C459.8,234.52,456.387,214.893,450.413,195.267z M436.76,302.787C404.333,295.107,383,275.48,383,255
				c0-20.48,21.333-39.253,53.76-47.787c4.267,15.36,5.973,31.573,5.973,47.787S441.027,287.427,436.76,302.787z"/>
			<path d="M273.773,198.68L255,223.711l-18.773-25.031c-1.707-2.56-4.267-3.413-6.827-3.413s-5.12,0.853-6.827,3.413l-25.6,34.133
				c-2.56,3.413-2.56,6.827,0,10.24l25.6,34.133c0.001,0.001,0.001,0.002,0.002,0.002l25.598,34.131
				c1.707,2.56,4.267,3.413,6.827,3.413s5.12-0.853,6.827-3.413l25.598-34.131c0.001-0.001,0.001-0.002,0.002-0.002l25.6-34.133
				c2.56-3.413,2.56-6.827,0-10.24l-25.6-34.133C284.013,194.413,277.187,194.413,273.773,198.68z M229.4,218.307l15.142,19.348
				l-14.616,19.487l-15.033-19.209L229.4,218.307z M255,291.693l-14.507-19.627L255,252.44l5.12,6.542l10.022,13.363L255,291.693z
				 M280.6,257.56l-5.12-6.542l-10.022-13.363l15.142-19.348l15.36,19.627L280.6,257.56z"/>
		</g>
	</g>
</g>
<g>
</g>
<g>
</g>
<g>
</g>
<g>
</g>
<g>
</g>
<g>
</g>
<g>
</g>
<g>
</g>
<g>
</g>
<g>
</g>
<g>
</g>
<g>
</g>
<g>
</g>
<g>
</g>
<g>
</g>
</svg>
