<?xml version="1.0" encoding="iso-8859-1"?>
<!-- Generator: Adobe Illustrator 19.0.0, SVG Export Plug-In . SVG Version: 6.00 Build 0)  -->
<svg version="1.1" id="Layer_1" xmlns="http://www.w3.org/2000/svg" xmlns:xlink="http://www.w3.org/1999/xlink" x="0px" y="0px"
	 viewBox="0 0 512 512" style="enable-background:new 0 0 512 512;" xml:space="preserve">
<g transform="translate(1 1)">
	<g>
		<path d="M476.867,365.933h-26.453L425.667,57.88V7.533c0-5.12-3.413-8.533-8.533-8.533H92.867c-5.12,0-8.533,3.413-8.533,8.533
			V57.88L59.587,365.933H33.133c-5.12,0-8.533,3.413-8.533,8.533v42.667c0,5.12,3.413,8.533,8.533,8.533h77.938l5.689,34.133h-6.827
			c-5.12,0-8.533,3.413-8.533,8.533v34.133c0,5.12,3.413,8.533,8.533,8.533h290.133c5.12,0,8.533-3.413,8.533-8.533v-34.133
			c0-5.12-3.413-8.533-8.533-8.533h-6.827l5.689-34.133h77.938c5.12,0,8.533-3.413,8.533-8.533v-42.667
			C485.4,369.347,481.987,365.933,476.867,365.933z M101.4,16.067h307.2V50.2h-34.133h-34.133h-51.2h-68.267h-51.2h-34.133H101.4
			V16.067z M348.867,67.267h17.687l24.126,298.667h-41.813V67.267z M229.4,67.267h51.2v298.667h-51.2V67.267z M161.133,67.267
			v298.667H119.32l24.126-298.667H161.133z M391.533,493.933H118.467v-17.067H127h256h8.533V493.933z M375.32,459.8H133.827
			l-5.12-34.133h252.587L375.32,459.8z M468.333,408.6h-76.8H118.467h-76.8V383h25.6c4.267,0,8.533-3.413,8.533-7.68l24.747-308.053
			h25.6L101.4,373.613c0,2.56,0.853,5.12,2.56,6.827c1.707,1.707,3.413,2.56,5.973,2.56h59.733c5.12,0,8.533-3.413,8.533-8.533
			v-307.2h34.133v307.2c0,5.12,3.413,8.533,8.533,8.533h68.267c5.12,0,8.533-3.413,8.533-8.533v-307.2H331.8v307.2
			c0,5.12,3.413,8.533,8.533,8.533h59.733c2.56,0,4.267-0.853,5.973-2.56c1.707-1.707,2.56-4.267,2.56-6.827L383.853,67.267h25.6
			L434.2,375.32c0,4.267,4.267,7.68,8.533,7.68h25.6V408.6z"/>
	</g>
</g>
<g>
</g>
<g>
</g>
<g>
</g>
<g>
</g>
<g>
</g>
<g>
</g>
<g>
</g>
<g>
</g>
<g>
</g>
<g>
</g>
<g>
</g>
<g>
</g>
<g>
</g>
<g>
</g>
<g>
</g>
</svg>
