<?xml version="1.0" encoding="iso-8859-1"?>
<!-- Generator: Adobe Illustrator 19.0.0, SVG Export Plug-In . SVG Version: 6.00 Build 0)  -->
<svg version="1.1" id="Layer_1" xmlns="http://www.w3.org/2000/svg" xmlns:xlink="http://www.w3.org/1999/xlink" x="0px" y="0px"
	 viewBox="0 0 512.559 512.559" style="enable-background:new 0 0 512.559 512.559;" xml:space="preserve">
<g transform="translate(1 1)">
	<g>
		<g>
			<path d="M510.573,498.586L263.107,3.653c-3.413-5.973-12.8-5.973-15.36,0L0.28,498.586c-1.707,2.56-1.707,5.973,0,8.533
				s5.12,4.267,7.68,4.267h494.933c2.56,0,6.827-1.707,7.68-4.267C511.427,504.559,512.28,501.146,510.573,498.586z M21.613,494.319
				L255.427,26.693L489.24,494.319H21.613z"/>
			<path d="M247.747,157.253L102.68,430.319c-1.707,2.56-1.707,5.973,0,8.533s4.267,4.267,7.68,4.267h290.133
				c3.413,0,5.973-1.707,7.68-4.267s1.707-5.973,0-8.533L263.107,157.253C259.693,151.279,250.307,151.279,247.747,157.253z
				 M386.84,426.053H124.867l130.56-246.613L386.84,426.053z"/>
		</g>
	</g>
</g>
<g>
</g>
<g>
</g>
<g>
</g>
<g>
</g>
<g>
</g>
<g>
</g>
<g>
</g>
<g>
</g>
<g>
</g>
<g>
</g>
<g>
</g>
<g>
</g>
<g>
</g>
<g>
</g>
<g>
</g>
</svg>
