<?xml version="1.0" encoding="iso-8859-1"?>
<!-- Generator: Adobe Illustrator 19.0.0, SVG Export Plug-In . SVG Version: 6.00 Build 0)  -->
<svg version="1.1" id="Layer_1" xmlns="http://www.w3.org/2000/svg" xmlns:xlink="http://www.w3.org/1999/xlink" x="0px" y="0px"
	 viewBox="0 0 512 512" style="enable-background:new 0 0 512 512;" xml:space="preserve">
<g transform="translate(1 1)">
	<g>
		<g>
			<path d="M502.467,63H135.533c-7.68,0-15.36,3.413-20.48,9.387L6.68,187.587c-5.12,5.12-7.68,12.8-7.68,19.627v69.12v162.133
				c0,5.12,3.413,8.533,8.533,8.533h494.933c5.12,0,8.533-3.413,8.533-8.533V276.333v-153.6v-51.2C511,66.413,507.587,63,502.467,63
				z M493.933,267.8H67.267v-29.867c0-2.56,0.853-5.973,3.413-7.68l88.747-95.573c2.56-1.707,5.12-3.413,8.533-3.413h325.973V267.8z
				 M16.067,207.213c0-2.56,0.853-5.12,3.413-7.68L127,83.48c2.56-1.707,5.12-3.413,8.533-3.413h358.4V114.2H167.96
				c-8.533,0-16.213,3.413-21.333,9.387l-88.747,94.72c-5.12,5.12-7.68,12.8-7.68,19.627V267.8H16.067V207.213z M493.933,429.933
				H16.067V284.867h42.667h435.2V429.933z"/>
			<path d="M229.4,353.133c2.56,0,4.267-0.853,5.973-2.56l11.093-11.093v56.32c0,5.12,3.413,8.533,8.533,8.533
				s8.533-3.413,8.533-8.533v-56.32l11.093,11.093c1.707,1.707,3.413,2.56,5.973,2.56s4.267-0.853,5.973-2.56
				c3.413-3.413,3.413-8.533,0-11.947l-24.14-24.14c-1.395-2.509-4.034-4.02-7.434-4.02s-6.038,1.511-7.434,4.02l-24.14,24.14
				c-3.413,3.413-3.413,8.533,0,11.947C225.133,352.28,226.84,353.133,229.4,353.133z"/>
		</g>
	</g>
</g>
<g>
</g>
<g>
</g>
<g>
</g>
<g>
</g>
<g>
</g>
<g>
</g>
<g>
</g>
<g>
</g>
<g>
</g>
<g>
</g>
<g>
</g>
<g>
</g>
<g>
</g>
<g>
</g>
<g>
</g>
</svg>
